<svg width="18" height="18" viewBox="0 0 18 18" fill="none" xmlns="http://www.w3.org/2000/svg">
<path d="M12.6571 14.8069L12.7806 14.9451L12.6503 14.8127C12.346 15.1077 12.0542 15.2125 11.7706 15.2261C11.4696 15.2406 11.136 15.154 10.7616 14.9905L10.7616 14.9904L10.7558 14.988C9.77162 14.5726 8.84097 14.555 7.8054 14.9872L7.80539 14.9872L7.80026 14.9894C7.2685 15.2183 6.93221 15.2677 6.68411 15.2333C6.44896 15.2006 6.22162 15.0829 5.92562 14.813C4.09384 12.9191 3.33795 10.5565 3.52874 8.6822C3.62404 7.74598 3.95221 6.95216 4.47382 6.38602C4.98464 5.83157 5.70798 5.46511 6.6682 5.41076C7.11504 5.4377 7.50359 5.5608 7.88166 5.69905C7.93305 5.71784 7.98625 5.73783 8.04088 5.75837C8.35861 5.87778 8.72502 6.0155 9.06779 6.04153L9.13715 6.0468L9.20531 6.03294C9.57831 5.95707 9.96 5.82474 10.3035 5.70565C10.424 5.66387 10.5399 5.62372 10.649 5.5882C11.0974 5.44223 11.4942 5.34889 11.8926 5.37696C12.7528 5.44568 13.4075 5.72672 13.8875 6.20264C11.7408 7.91304 12.2784 10.9953 14.3647 12.1902C13.9504 13.1921 13.4315 14.1144 12.6571 14.8069ZM9.7941 4.24696C9.70409 4.28493 9.61948 4.31373 9.54111 4.33464C9.68028 3.27932 10.4831 2.40729 11.4838 2.10362C11.4042 2.71039 11.085 3.24977 10.6596 3.66177C10.3861 3.9267 10.0806 4.12608 9.7941 4.24696Z" fill="#476285" stroke="#476285"/>
</svg>
