<svg width="14" height="11" viewBox="0 0 14 11" fill="none" xmlns="http://www.w3.org/2000/svg">
<path d="M13.8396 4.89042C13.8394 4.8902 13.8393 4.88994 13.8391 4.88971L10.9816 1.01738C10.7675 0.727296 10.4213 0.728375 10.2082 1.01992C9.9951 1.31142 9.99592 1.78291 10.21 2.07304L12.1285 4.67286H0.546875C0.244836 4.67286 0 5.00625 0 5.41754C0 5.82882 0.244836 6.16222 0.546875 6.16222H12.1285L10.21 8.76204C9.99594 9.05216 9.99512 9.52366 10.2082 9.81516C10.4213 10.1067 10.7676 10.1077 10.9816 9.81769L13.8391 5.94537C13.8393 5.94514 13.8394 5.94488 13.8396 5.94466C14.0538 5.65356 14.0531 5.18055 13.8396 4.89042Z" fill="url(#paint0_linear_1_1437)"/>
<defs>
<linearGradient id="paint0_linear_1_1437" x1="7" y1="0.800537" x2="7" y2="10.0345" gradientUnits="userSpaceOnUse">
<stop stop-color="#F1A501"/>
<stop offset="1" stop-color="#ED532E"/>
</linearGradient>
</defs>
</svg>
