<svg width="10" height="18" viewBox="0 0 10 18" fill="none" xmlns="http://www.w3.org/2000/svg">
<path d="M0.444114 0.473565C0.303332 0.622703 0.191641 0.799851 0.115433 0.994868C0.0392265 1.18989 0 1.39894 0 1.61007C0 1.8212 0.0392265 2.03026 0.115433 2.22528C0.191641 2.42029 0.303332 2.59744 0.444114 2.74658L6.33639 9.0014L0.444114 15.2562C0.160165 15.5576 0.000643035 15.9665 0.000643035 16.3927C0.000643035 16.819 0.160165 17.2278 0.444114 17.5292C0.728064 17.8307 1.11318 18 1.51475 18C1.91631 18 2.30143 17.8307 2.58538 17.5292L9.55589 10.1299C9.69667 9.98071 9.80836 9.80357 9.88457 9.60855C9.96078 9.41353 10 9.20447 10 8.99334C10 8.78221 9.96078 8.57316 9.88457 8.37814C9.80836 8.18312 9.69667 8.00597 9.55589 7.85684L2.58538 0.457444C2.0083 -0.155142 1.03638 -0.155142 0.444114 0.473565Z" fill="white"/>
</svg>
