<svg width="47" height="48" viewBox="0 0 47 48" fill="none" xmlns="http://www.w3.org/2000/svg">
<g filter="url(#filter0_d_1_4719)">
<path d="M14.7531 13.301C14.7531 13.6164 14.3821 14.1102 14.1342 14.3422C13.7923 14.6568 13.7923 15.1664 14.1342 15.481C14.4761 15.7955 15.0301 15.7955 15.372 15.481C15.4882 15.3748 16.5038 14.4083 16.5038 13.3011C16.5038 12.1938 15.4883 11.2273 15.3745 11.1234C15.1241 10.8891 14.7531 10.3952 14.7531 10.0799C14.7531 9.76454 15.1241 9.27069 15.3745 9.03635C15.7139 8.7218 15.7131 8.21377 15.372 7.89997C15.0301 7.58543 14.4761 7.58543 14.1342 7.89997C14.018 8.00616 13.0024 8.97262 13.0024 10.0799C13.0024 11.1872 14.0179 12.1537 14.1317 12.2575C14.3821 12.4918 14.7531 12.9857 14.7531 13.301Z" fill="url(#paint0_linear_1_4719)"/>
<path d="M20.0048 11.6906C20.0048 12.006 19.6338 12.4998 19.3859 12.7319C19.044 13.0464 19.044 13.5561 19.3859 13.8706C19.7278 14.1852 20.2818 14.1852 20.6237 13.8706C20.7399 13.7644 21.7555 12.798 21.7555 11.6907C21.7555 10.5834 20.74 9.6169 20.6263 9.51307C20.3758 9.27873 20.0048 8.78487 20.0048 8.46952C20.0048 8.15417 20.3758 7.60662 20.6263 7.37228C20.9656 7.05774 20.9648 6.54971 20.6237 6.23591C20.2818 5.92136 19.7278 5.92136 19.3859 6.23591C19.2697 6.3421 18.2542 7.36224 18.2542 8.46952C18.2542 9.57679 19.2696 10.5433 19.3834 10.6471C19.6338 10.8814 20.0048 11.3753 20.0048 11.6906Z" fill="url(#paint1_linear_1_4719)"/>
<path d="M14.7537 25.3801H16.5036V23.779C16.4702 23.5706 16.1035 23.0649 15.6282 22.5459C15.1496 23.0689 14.7811 23.5777 14.7529 23.7837L14.7537 25.3801Z" fill="url(#paint2_linear_1_4719)"/>
<path d="M25.2871 28.5261C30.2082 28.0522 32.7011 25.1414 32.5982 22.4048C32.5221 20.3766 31.0587 18.9595 29.0397 18.9595C28.5393 18.9595 28.0382 19.0438 27.5661 19.179C27.5848 18.9488 27.6044 18.7591 27.6259 18.7023C27.8763 18.4719 27.9515 18.1259 27.8156 17.8247C27.6806 17.5235 27.3609 17.3276 27.007 17.3276H16.5032V21.0274C17.1758 21.6811 18.2538 22.8691 18.2538 23.77V26.1858C18.2538 26.6309 17.8623 26.9911 17.3785 26.9911H13.8773C13.3934 26.9911 13.0019 26.6309 13.0019 26.1858V23.77C13.0019 22.869 14.08 21.681 14.7526 21.0274V17.3277H7.75005C7.39619 17.3277 7.04741 17.4897 6.9115 17.7901C6.77647 18.0913 6.82175 18.4027 7.07221 18.6331C7.19271 18.8565 7.24143 19.7884 7.28076 20.537C7.47217 24.2002 7.86968 31.8766 17.3802 31.8766C21.4604 31.8766 23.8567 30.4171 25.2871 28.5261ZM30.8484 22.4606C30.913 24.1815 29.4991 26.1053 26.3124 26.7643C27.1871 24.7686 27.3721 22.5834 27.4607 20.9688C27.8866 20.7298 28.4841 20.5701 29.0397 20.5701C30.3227 20.5701 30.816 21.5885 30.8484 22.4606Z" fill="url(#paint3_linear_1_4719)"/>
<path d="M6.87507 33.487H27.8827C28.3665 33.487 28.758 33.1269 28.758 32.6818C28.758 32.2366 28.3665 31.8765 27.8827 31.8765H6.87507C6.39126 31.8765 5.99976 32.2366 5.99976 32.6818C5.99976 33.1269 6.39126 33.487 6.87507 33.487Z" fill="url(#paint4_linear_1_4719)"/>
</g>
<defs>
<filter id="filter0_d_1_4719" x="-0.000244141" y="0" width="46.6016" height="47.4868" filterUnits="userSpaceOnUse" color-interpolation-filters="sRGB">
<feFlood flood-opacity="0" result="BackgroundImageFix"/>
<feColorMatrix in="SourceAlpha" type="matrix" values="0 0 0 0 0 0 0 0 0 0 0 0 0 0 0 0 0 0 127 0" result="hardAlpha"/>
<feOffset dx="4" dy="4"/>
<feGaussianBlur stdDeviation="5"/>
<feComposite in2="hardAlpha" operator="out"/>
<feColorMatrix type="matrix" values="0 0 0 0 0 0 0 0 0 0 0 0 0 0 0 0 0 0 0.25 0"/>
<feBlend mode="normal" in2="BackgroundImageFix" result="effect1_dropShadow_1_4719"/>
<feBlend mode="normal" in="SourceGraphic" in2="effect1_dropShadow_1_4719" result="shape"/>
</filter>
<linearGradient id="paint0_linear_1_4719" x1="14.7531" y1="7.66406" x2="14.7531" y2="15.7169" gradientUnits="userSpaceOnUse">
<stop stop-color="#FFD994"/>
<stop offset="0.520833" stop-color="#FF9F39"/>
<stop offset="1" stop-color="#E95818"/>
</linearGradient>
<linearGradient id="paint1_linear_1_4719" x1="20.0048" y1="6" x2="20.0048" y2="14.1065" gradientUnits="userSpaceOnUse">
<stop stop-color="#FFD994"/>
<stop offset="0.520833" stop-color="#FF9F39"/>
<stop offset="1" stop-color="#E95818"/>
</linearGradient>
<linearGradient id="paint2_linear_1_4719" x1="15.6282" y1="22.5459" x2="15.6282" y2="25.3801" gradientUnits="userSpaceOnUse">
<stop stop-color="#FFD994"/>
<stop offset="0.520833" stop-color="#FF9F39"/>
<stop offset="1" stop-color="#E95818"/>
</linearGradient>
<linearGradient id="paint3_linear_1_4719" x1="19.7191" y1="17.3276" x2="19.7191" y2="31.8766" gradientUnits="userSpaceOnUse">
<stop stop-color="#FFD994"/>
<stop offset="0.520833" stop-color="#FF9F39"/>
<stop offset="1" stop-color="#E95818"/>
</linearGradient>
<linearGradient id="paint4_linear_1_4719" x1="17.3789" y1="31.8765" x2="17.3789" y2="33.487" gradientUnits="userSpaceOnUse">
<stop stop-color="#FFD994"/>
<stop offset="0.520833" stop-color="#FF9F39"/>
<stop offset="1" stop-color="#E95818"/>
</linearGradient>
</defs>
</svg>
