<svg width="46" height="46" viewBox="0 0 46 46" fill="none" xmlns="http://www.w3.org/2000/svg">
<g filter="url(#filter0_d_1_4751)">
<path d="M27.1882 26.6924H10.0132C9.69721 26.6924 9.44108 26.9485 9.44049 27.2645L9.43823 28.9343C9.4377 29.5589 9.68036 30.1462 10.1216 30.5879C10.5634 31.0303 11.15 31.2736 11.7747 31.2736H25.4243C26.7128 31.2736 27.7608 30.2256 27.7608 28.9371V27.265C27.7608 26.9485 27.5047 26.6924 27.1882 26.6924Z" fill="url(#paint0_linear_1_4751)"/>
<path d="M24.8974 8.36776C24.5468 8.36776 24.1866 8.40298 23.8053 8.47401C22.495 6.94616 20.6171 6.07715 18.5983 6.07715C14.809 6.07715 11.7265 9.15963 11.7265 12.9489C11.7265 13.2649 11.4698 13.5216 11.1538 13.5216C10.8379 13.5216 10.5812 13.2649 10.5812 12.9489C10.5812 11.7091 10.8664 10.5096 11.429 9.38388C11.5291 9.18368 11.5033 8.94376 11.3635 8.76928C11.2237 8.59593 10.995 8.51873 10.778 8.57188C7.96458 9.27371 6 11.7801 6 14.6669C6 17.047 7.34215 19.2106 9.44932 20.2804L9.44315 24.974C9.44315 25.1256 9.50301 25.2715 9.61038 25.3794C9.71829 25.4868 9.86372 25.5472 10.0158 25.5472H27.1881C27.5046 25.5472 27.7607 25.2911 27.7607 24.9745V20.272C29.8601 19.1994 31.1966 17.0391 31.1966 14.6668C31.1966 11.1935 28.3708 8.36776 24.8974 8.36776ZM14.3806 21.9816C14.2737 22.0688 14.1452 22.1114 14.0177 22.1114C13.8522 22.1114 13.6877 22.0398 13.5742 21.9022C13.3852 21.6712 11.7265 19.6066 11.7265 18.1028C11.7265 17.7863 11.9826 17.5301 12.2992 17.5301C12.6157 17.5301 12.8718 17.7863 12.8718 18.1028C12.8718 18.9316 13.846 20.427 14.46 21.1752C14.6602 21.4202 14.625 21.7808 14.3806 21.9816ZM19.1709 21.5387C19.1709 21.8552 18.9148 22.1114 18.5983 22.1114C18.2817 22.1114 18.0256 21.8552 18.0256 21.5387V18.1028C18.0256 17.7863 18.2818 17.5301 18.5983 17.5301C18.9148 17.5301 19.171 17.7863 19.171 18.1028V21.5387H19.1709ZM23.6224 21.9022C23.5089 22.0398 23.345 22.1114 23.1795 22.1114C23.0514 22.1114 22.9228 22.0688 22.8166 21.9816C22.5722 21.7808 22.5364 21.4201 22.7366 21.1758C23.3506 20.4258 24.3248 18.9288 24.3248 18.1028C24.3248 17.7863 24.5809 17.5301 24.8974 17.5301C25.214 17.5301 25.4701 17.7863 25.4701 18.1028C25.4701 19.6065 23.8114 21.6712 23.6224 21.9022Z" fill="url(#paint1_linear_1_4751)"/>
</g>
<defs>
<filter id="filter0_d_1_4751" x="0" y="0.0771484" width="45.1965" height="45.1963" filterUnits="userSpaceOnUse" color-interpolation-filters="sRGB">
<feFlood flood-opacity="0" result="BackgroundImageFix"/>
<feColorMatrix in="SourceAlpha" type="matrix" values="0 0 0 0 0 0 0 0 0 0 0 0 0 0 0 0 0 0 127 0" result="hardAlpha"/>
<feOffset dx="4" dy="4"/>
<feGaussianBlur stdDeviation="5"/>
<feComposite in2="hardAlpha" operator="out"/>
<feColorMatrix type="matrix" values="0 0 0 0 0 0 0 0 0 0 0 0 0 0 0 0 0 0 0.25 0"/>
<feBlend mode="normal" in2="BackgroundImageFix" result="effect1_dropShadow_1_4751"/>
<feBlend mode="normal" in="SourceGraphic" in2="effect1_dropShadow_1_4751" result="shape"/>
</filter>
<linearGradient id="paint0_linear_1_4751" x1="18.5995" y1="26.6924" x2="18.5995" y2="31.2736" gradientUnits="userSpaceOnUse">
<stop stop-color="#FFD994"/>
<stop offset="0.520833" stop-color="#FF9F39"/>
<stop offset="1" stop-color="#E95818"/>
</linearGradient>
<linearGradient id="paint1_linear_1_4751" x1="18.5983" y1="6.07715" x2="18.5983" y2="25.5472" gradientUnits="userSpaceOnUse">
<stop stop-color="#FFD994"/>
<stop offset="0.520833" stop-color="#FF9F39"/>
<stop offset="1" stop-color="#E95818"/>
</linearGradient>
</defs>
</svg>
