<svg width="22" height="22" viewBox="0 0 22 22" fill="none" xmlns="http://www.w3.org/2000/svg">
<rect width="22" height="22" rx="11" fill="url(#paint0_linear_1_2118)"/>
<path d="M17.9196 8.33928C17.9196 8.11607 17.8304 7.89286 17.6696 7.73214L16.4554 6.51786C16.2946 6.35714 16.0714 6.26786 15.8482 6.26786C15.625 6.26786 15.4018 6.35714 15.2411 6.51786L9.38393 12.3839L6.75893 9.75C6.59821 9.58929 6.375 9.5 6.15179 9.5C5.92857 9.5 5.70536 9.58929 5.54464 9.75L4.33036 10.9643C4.16964 11.125 4.08036 11.3482 4.08036 11.5714C4.08036 11.7946 4.16964 12.0179 4.33036 12.1786L7.5625 15.4107L8.77679 16.625C8.9375 16.7857 9.16071 16.875 9.38393 16.875C9.60714 16.875 9.83036 16.7857 9.99107 16.625L11.2054 15.4107L17.6696 8.94643C17.8304 8.78571 17.9196 8.5625 17.9196 8.33928Z" fill="#000235"/>
<defs>
<linearGradient id="paint0_linear_1_2118" x1="9.74947" y1="10.9405" x2="0.240114" y2="11.3779" gradientUnits="userSpaceOnUse">
<stop stop-color="#9130F4"/>
<stop offset="1" stop-color="#4646F9"/>
</linearGradient>
</defs>
</svg>
