<svg width="48" height="45" viewBox="0 0 48 45" fill="none" xmlns="http://www.w3.org/2000/svg">
<g filter="url(#filter0_d_1_4749)">
<path d="M29.6025 29.0969C30.1243 29.0927 30.7067 28.3866 31.0534 27.7647C32.0744 27.6241 33.5665 26.3962 33.5791 25.0075C33.5834 24.4823 33.3645 24.2114 33.1802 24.0766C32.8174 23.8064 32.3209 23.8603 31.9514 23.9487C31.9632 23.6616 31.9616 23.405 31.9498 23.2064C31.4827 23.2064 30.8565 23.2064 30.2252 23.2064C30.1538 22.4523 30.0536 21.4768 29.9441 20.8246C29.743 19.627 28.9796 18.7853 28.3964 18.1279C28.0404 17.7248 27.6313 17.5195 27.368 17.4193C27.4874 17.2602 27.559 17.1651 27.559 17.1651C27.559 17.1651 27.4075 15.9679 25.5291 15.2819C23.6463 14.596 21.1391 16.4202 21.1391 16.4202C21.1391 16.4202 21.7838 14.1348 18.7021 11.3233L19.0291 10.6054C19.5572 10.684 20.1123 10.4842 20.4569 10.0263C20.9581 9.36098 20.8268 8.41379 20.159 7.91129C19.4946 7.41009 18.5473 7.54265 18.0457 8.20879C17.7069 8.65776 17.6631 9.23008 17.8689 9.71107L17.2777 10.1874C15.3394 8.83479 13.8194 8.52636 12.6642 8.6416C12.1214 7.2466 11.2225 5.78894 9.88308 6.02538C8.11655 6.33309 5.93422 8.39887 6.00152 10.2782C6.02933 11.084 6.50568 11.6786 7.07041 12.1045C7.44875 12.3898 7.86657 12.5977 8.21839 12.7433C7.83716 13.9237 7.83882 15.208 8.81723 16.1637L8.51807 16.56L15.3066 21.6763L15.605 21.2816C17.6682 22.0273 19.9053 19.8811 21.3327 18.9082C22.7761 17.921 24.7202 16.0803 26.6012 18.4335C26.7056 18.2963 26.8016 18.1676 26.8932 18.048C27.2148 18.6532 27.9275 20.1992 27.6036 21.4962C27.4378 22.1619 27.2619 22.7426 27.1087 23.2064C26.3563 23.2064 24.9601 23.2064 23.9543 23.2064C23.8803 24.558 24.4003 28.9294 26.3757 29.0977C26.3757 29.1945 26.3757 29.272 26.3757 29.3242H22.558V30.0513H33.5783V29.3242H29.6025C29.6025 29.2712 29.6025 29.1938 29.6025 29.0969ZM31.8959 24.7457C32.3268 24.617 32.6113 24.5909 32.7341 24.6809C32.8116 24.739 32.8276 24.8871 32.825 25.0008C32.8192 25.7725 32.0878 26.5047 31.4624 26.8389C31.6939 26.1497 31.8269 25.409 31.8959 24.7457ZM8.65012 11.7098C7.98355 11.4358 7.14697 10.9334 7.12089 10.2378C7.07714 8.9943 8.81803 7.34802 10.0763 7.12839C10.1747 7.11115 10.3339 7.11115 10.5779 7.32317C10.9512 7.64385 11.2811 8.24682 11.55 8.90375C10.944 9.13563 10.4925 9.45797 10.1823 9.68267C9.80398 9.9575 9.14625 10.7394 8.65012 11.7098ZM14.1691 9.89564C13.944 9.98191 13.6338 10.1317 13.2816 10.3371C12.5835 10.7436 11.6981 11.3823 11.1502 12.208C11.032 12.3973 10.8607 12.6759 10.7563 12.88C10.6406 13.1102 10.5228 13.3403 10.4235 13.5663C10.229 14.0229 10.0754 14.4606 9.97609 14.8477C9.88395 15.2327 9.85034 15.5647 9.87388 15.7975C9.89279 16.031 9.97442 16.1594 9.97442 16.1594C9.97442 16.1594 9.94537 16.1379 9.89025 16.0962C9.83933 16.0516 9.75899 15.9742 9.69959 15.8567C9.56703 15.6249 9.45845 15.2457 9.45215 14.7976C9.44121 14.3477 9.50807 13.8238 9.67308 13.2927C9.75305 13.0255 9.8486 12.7566 9.97906 12.4915C10.1238 12.2036 10.221 11.9924 10.41 11.7122C10.763 11.1915 11.231 10.7813 11.7069 10.4825C12.1833 10.1852 12.6642 9.98785 13.0901 9.87333C13.5152 9.75511 13.8821 9.71723 14.1413 9.72606C14.4052 9.72693 14.5466 9.81654 14.5336 9.82327C14.5336 9.80857 14.3951 9.8027 14.1691 9.89564ZM25.4036 27.3481C24.9735 26.3549 24.6647 23.6651 24.6647 23.6651C24.6647 23.6651 25.5375 26.0823 25.7352 26.7522C25.933 27.423 26.8024 28.374 26.8024 28.374C26.8024 28.374 25.8337 28.3403 25.4036 27.3481Z" fill="url(#paint0_linear_1_4749)"/>
</g>
<defs>
<filter id="filter0_d_1_4749" x="0" y="0" width="47.5791" height="44.0513" filterUnits="userSpaceOnUse" color-interpolation-filters="sRGB">
<feFlood flood-opacity="0" result="BackgroundImageFix"/>
<feColorMatrix in="SourceAlpha" type="matrix" values="0 0 0 0 0 0 0 0 0 0 0 0 0 0 0 0 0 0 127 0" result="hardAlpha"/>
<feOffset dx="4" dy="4"/>
<feGaussianBlur stdDeviation="5"/>
<feComposite in2="hardAlpha" operator="out"/>
<feColorMatrix type="matrix" values="0 0 0 0 0 0 0 0 0 0 0 0 0 0 0 0 0 0 0.25 0"/>
<feBlend mode="normal" in2="BackgroundImageFix" result="effect1_dropShadow_1_4749"/>
<feBlend mode="normal" in="SourceGraphic" in2="effect1_dropShadow_1_4749" result="shape"/>
</filter>
<linearGradient id="paint0_linear_1_4749" x1="19.7896" y1="6" x2="19.7896" y2="30.0513" gradientUnits="userSpaceOnUse">
<stop stop-color="#FFD994"/>
<stop offset="0.520833" stop-color="#FF9F39"/>
<stop offset="1" stop-color="#E95818"/>
</linearGradient>
</defs>
</svg>
