<svg width="33" height="33" viewBox="0 0 33 33" fill="none" xmlns="http://www.w3.org/2000/svg">
<path d="M17 30L8.56401 20.051C8.44679 19.9016 8.33079 19.7513 8.21601 19.6C6.77499 17.7018 5.99652 15.3832 6.00001 13C6.00001 10.0826 7.15894 7.28473 9.22184 5.22183C11.2847 3.15893 14.0826 2 17 2C19.9174 2 22.7153 3.15893 24.7782 5.22183C26.8411 7.28473 28 10.0826 28 13C28.0035 15.3821 27.2254 17.6996 25.785 19.597L25.784 19.6C25.784 19.6 25.484 19.994 25.439 20.047L17 30ZM9.81201 18.395C9.81401 18.395 10.046 18.703 10.099 18.769L17 26.908L23.91 18.758C23.954 18.703 24.188 18.393 24.189 18.392C25.3662 16.8411 26.0023 14.947 26 13C26 10.6131 25.0518 8.32387 23.364 6.63604C21.6761 4.94821 19.387 4 17 4C14.6131 4 12.3239 4.94821 10.6361 6.63604C8.94822 8.32387 8.00001 10.6131 8.00001 13C7.99791 14.9482 8.63479 16.8434 9.81301 18.395H9.81201Z" fill="white"/>
<path d="M22 18.0002H20V10.0002H14V18.0002H12V10.0002C12.0005 9.46997 12.2114 8.96157 12.5864 8.58662C12.9613 8.21166 13.4697 8.00077 14 8.00024H20C20.5303 8.00077 21.0387 8.21166 21.4136 8.58662C21.7886 8.96157 21.9995 9.46997 22 10.0002V18.0002Z" fill="white"/>
<path d="M15.9999 16H17.9999V18H15.9999V16ZM15.9999 12H17.9999V14H15.9999V12Z" fill="white"/>
</svg>
