<svg width="35" height="33" viewBox="0 0 35 33" fill="none" xmlns="http://www.w3.org/2000/svg">
<path fill-rule="evenodd" clip-rule="evenodd" d="M22.8193 20.3617C27.6665 20.3617 31.5959 16.4323 31.5959 11.5851C31.5959 6.73793 27.6665 2.80851 22.8193 2.80851C17.9721 2.80851 14.0427 6.73793 14.0427 11.5851C14.0427 16.4323 17.9721 20.3617 22.8193 20.3617ZM22.8193 23.1702C29.2176 23.1702 34.4044 17.9834 34.4044 11.5851C34.4044 5.18683 29.2176 0 22.8193 0C16.421 0 11.2342 5.18683 11.2342 11.5851C11.2342 17.9834 16.421 23.1702 22.8193 23.1702ZM11.5851 30.1914C16.4323 30.1914 20.3617 26.262 20.3617 21.4149C20.3617 16.5677 16.4323 12.6383 11.5851 12.6383C6.73793 12.6383 2.80851 16.5677 2.80851 21.4149C2.80851 26.262 6.73793 30.1914 11.5851 30.1914ZM11.5851 33C17.9834 33 23.1702 27.8131 23.1702 21.4149C23.1702 15.0166 17.9834 9.82975 11.5851 9.82975C5.18683 9.82975 0 15.0166 0 21.4149C0 27.8131 5.18683 33 11.5851 33Z" fill="url(#paint0_linear_428_2080)"/>
<defs>
<linearGradient id="paint0_linear_428_2080" x1="34.4043" y1="0" x2="-2.22555" y2="30.3105" gradientUnits="userSpaceOnUse">
<stop stop-color="#5A0068"/>
<stop offset="0.115642" stop-color="#FF432A"/>
<stop offset="0.244792" stop-color="#E04349"/>
<stop offset="0.802083" stop-color="#2A3FFF"/>
<stop offset="1" stop-color="#000235"/>
</linearGradient>
</defs>
</svg>
