<svg width="47" height="45" viewBox="0 0 47 45" fill="none" xmlns="http://www.w3.org/2000/svg">
<g filter="url(#filter0_d_1_4713)">
<path d="M24.0959 16.4232C25.5616 17.2086 28.385 16.9681 30.5314 14.8212C32.6604 12.6926 33.4654 9.57993 31.4526 7.50062L31.4541 7.4998C31.4446 7.49103 31.4103 7.45684 31.4016 7.44765C31.4016 7.44765 31.4016 7.44848 31.4 7.44848C29.322 5.43653 26.2096 6.24103 24.0799 8.36968C21.9334 10.5166 21.6929 13.3399 22.4779 14.8056C22.2757 16.0059 20.6292 17.3081 19.1523 18.1532C18.0133 17.4506 16.577 16.2089 16.4261 13.7125C16.5352 12.7153 16.2067 11.679 15.4436 10.9159C15.3736 10.8458 15.1721 10.6754 15.1721 10.6754L9.60834 6.34218L9.10152 6.84859L15.1387 12.5123L14.4838 13.1671L8.63499 7.31786L8.09795 7.8545L13.946 13.7041L13.393 14.257L7.545 8.40908L7.05572 8.89398L12.8687 14.7074L12.2027 15.3758L6.55452 9.39635L6 9.95251L10.6171 15.7702C10.6171 15.7702 10.727 15.8829 10.7735 15.9243C11.4455 16.5115 12.289 16.7885 13.1238 16.7651C13.1298 16.7651 13.1386 16.7667 13.1417 16.7675C15.34 16.7894 16.6983 18.1258 17.5527 19.2787C15.4623 21.3702 8.97495 27.8583 8.97495 27.8583L8.97653 27.8599C8.97016 27.8647 8.96179 27.8703 8.95542 27.8766C8.42715 28.4045 8.42715 29.2612 8.95542 29.7907C8.98249 29.817 9.08439 29.9181 9.11029 29.9452C9.63857 30.4739 10.4965 30.4739 11.024 29.946C11.0303 29.9396 11.0359 29.9317 11.0411 29.9246L11.0427 29.9269C11.0427 29.9269 17.0671 23.9022 19.3768 21.5932C21.5751 23.7907 27.6684 29.8824 27.6684 29.8824L27.6699 29.8808C27.6747 29.8864 27.6771 29.8943 27.6851 29.9023C28.2042 30.4206 29.0514 30.4206 29.5712 29.9007C30.0911 29.38 30.0927 28.5361 29.572 28.0145C29.5641 28.0074 29.5561 28.005 29.5498 27.9979L29.5513 27.9963C29.5513 27.9963 22.8211 21.2669 20.954 19.3982C21.7972 18.0239 22.9899 16.6094 24.0959 16.4232ZM23.3809 12.4032C23.4126 12.0461 23.4843 11.6353 23.6029 11.2005C23.6659 10.9844 23.7399 10.7618 23.8299 10.5369C23.9294 10.3084 24.0338 10.0958 24.1866 9.8733C24.4788 9.44617 24.8346 9.11409 25.189 8.83546C25.5393 8.5532 25.8952 8.33384 26.2113 8.16746C26.525 7.99785 26.806 7.88801 27.0067 7.8251C27.2105 7.75822 27.3291 7.74945 27.3291 7.74945C27.3291 7.74945 27.2312 7.82352 27.0847 7.96044C26.9366 8.09818 26.7256 8.29567 26.4717 8.53209C25.9844 9.00746 25.2901 9.62447 24.7981 10.2956C24.6794 10.4489 24.5736 10.6511 24.4812 10.8362C24.3809 11.0254 24.2916 11.2208 24.2105 11.4143C24.0417 11.7988 23.9023 12.1714 23.7821 12.4927C23.6651 12.8148 23.5736 13.0871 23.5194 13.2806C23.4605 13.4744 23.4684 13.5895 23.478 13.5895C23.4733 13.5967 23.4008 13.4852 23.3793 13.2714C23.353 13.06 23.3474 12.7594 23.3809 12.4032Z" fill="url(#paint0_linear_1_4713)"/>
</g>
<defs>
<filter id="filter0_d_1_4713" x="0" y="0.290527" width="46.6111" height="44.0513" filterUnits="userSpaceOnUse" color-interpolation-filters="sRGB">
<feFlood flood-opacity="0" result="BackgroundImageFix"/>
<feColorMatrix in="SourceAlpha" type="matrix" values="0 0 0 0 0 0 0 0 0 0 0 0 0 0 0 0 0 0 127 0" result="hardAlpha"/>
<feOffset dx="4" dy="4"/>
<feGaussianBlur stdDeviation="5"/>
<feComposite in2="hardAlpha" operator="out"/>
<feColorMatrix type="matrix" values="0 0 0 0 0 0 0 0 0 0 0 0 0 0 0 0 0 0 0.25 0"/>
<feBlend mode="normal" in2="BackgroundImageFix" result="effect1_dropShadow_1_4713"/>
<feBlend mode="normal" in="SourceGraphic" in2="effect1_dropShadow_1_4713" result="shape"/>
</filter>
<linearGradient id="paint0_linear_1_4713" x1="19.3055" y1="6.29053" x2="19.3055" y2="30.3418" gradientUnits="userSpaceOnUse">
<stop stop-color="#FFD994"/>
<stop offset="0.520833" stop-color="#FF9F39"/>
<stop offset="1" stop-color="#E95818"/>
</linearGradient>
</defs>
</svg>
