<svg width="77" height="77" viewBox="0 0 77 77" fill="none" xmlns="http://www.w3.org/2000/svg">
<path d="M61.0586 38.5C61.0586 26.0619 50.9381 15.9414 38.5 15.9414C26.0619 15.9414 15.9414 26.0619 15.9414 38.5C15.9414 50.9381 26.0619 61.0586 38.5 61.0586C50.9381 61.0586 61.0586 50.9381 61.0586 38.5ZM59.2566 65.3792C53.2732 70.0297 46.0959 72.4883 38.5 72.4883C19.8407 72.4883 4.51172 57.3097 4.51172 38.6504C4.51172 33.98 5.59619 29.4617 7.43351 25.2187C7.92694 24.0753 7.40268 22.7469 6.26151 22.2513C5.09839 21.7557 3.78533 22.2822 3.2919 23.4256C1.20779 28.2369 0 33.361 0 38.6504C0 59.7968 17.3557 77 38.5 77C47.1093 77 55.2427 74.2133 62.0235 68.9392C63.006 68.1748 63.1866 66.7582 62.4201 65.7757C61.6534 64.7844 60.2302 64.6083 59.2566 65.3792ZM38.5 0C29.8907 0 21.7573 2.78674 14.9765 8.06079C13.994 8.82522 13.8134 10.2418 14.5799 11.2243C15.3466 12.2113 16.7652 12.383 17.7434 11.6208C23.7268 6.9703 30.9041 4.51172 38.5 4.51172C57.1593 4.51172 72.4883 19.6903 72.4883 38.3496C72.4883 43.02 71.4038 47.5383 69.5665 51.7813C69.0731 52.9247 69.5973 54.2531 70.7385 54.7487C71.9112 55.2475 73.2189 54.6987 73.7081 53.5744C75.7922 48.7631 77 43.639 77 38.3496C77 17.2032 59.6443 0 38.5 0Z" fill="url(#paint0_linear_1_1738)"/>
<path d="M17.7611 8.04533C15.1418 5.41244 10.8511 5.38567 8.19132 8.04096C5.55256 10.6797 5.53963 14.9612 8.19132 17.6129C10.8122 20.2337 15.104 20.2792 17.7611 17.6129C20.3946 14.9794 20.4182 10.7026 17.7611 8.04533ZM68.8087 59.3872C66.154 56.7325 61.8636 56.7534 59.2389 59.3872C56.5894 62.0366 56.5975 66.3226 59.2389 68.9547C61.7678 71.4969 66.0445 71.7185 68.8087 68.9591C71.4476 66.3203 71.4604 62.0389 68.8087 59.3872ZM38.5 13.6856C24.8194 13.6856 13.6855 24.8173 13.6855 38.5C13.6855 52.1827 24.8194 63.3145 38.5 63.3145C52.1806 63.3145 63.3144 52.1827 63.3144 38.5C63.3144 24.8173 52.1806 13.6856 38.5 13.6856ZM58.5747 36.2442H49.733C49.4832 30.0992 48.214 23.9881 46.0109 19.6758C52.8145 22.4006 57.7262 28.7019 58.5747 36.2442ZM18.4252 40.7559H27.267C27.5168 46.9008 28.786 53.012 30.989 57.3243C24.1855 54.5995 19.2738 48.2981 18.4252 40.7559ZM27.267 36.2442H18.4252C19.2738 28.7019 24.1855 22.4006 30.9889 19.6758C28.786 23.9881 27.5167 30.0992 27.267 36.2442ZM38.5 58.8028C35.9173 58.8028 32.2807 51.8138 31.8228 40.7559H45.1773C44.7192 51.8138 41.0826 58.8028 38.5 58.8028ZM31.8228 36.2442C32.2807 25.1862 35.9173 18.1973 38.5 18.1973C41.0826 18.1973 44.7192 25.1862 45.1772 36.2442H31.8228ZM46.0111 57.3243C48.214 53.012 49.4833 46.9008 49.7331 40.7559H58.5749C57.7262 48.2981 52.8145 54.5995 46.0111 57.3243Z" fill="url(#paint1_linear_1_1738)"/>
<defs>
<linearGradient id="paint0_linear_1_1738" x1="34.1232" y1="38.2919" x2="0.840399" y2="39.8226" gradientUnits="userSpaceOnUse">
<stop stop-color="#9130F4"/>
<stop offset="1" stop-color="#4646F9"/>
</linearGradient>
<linearGradient id="paint1_linear_1_1738" x1="70.7926" y1="38.3276" x2="6.98696" y2="41.2485" gradientUnits="userSpaceOnUse">
<stop stop-color="#FFD3D3"/>
<stop offset="1" stop-color="#FF92CD"/>
</linearGradient>
</defs>
</svg>
