<svg width="18" height="18" viewBox="0 0 18 18" fill="none" xmlns="http://www.w3.org/2000/svg">
<path d="M11.464 5.64234C10.791 5.14437 9.98917 4.89154 9.12284 4.89154C6.81514 4.89154 4.96058 6.83361 4.96058 9.11911C4.96058 11.4034 6.81456 13.3498 9.12284 13.3498C11.1622 13.3498 12.6473 12.1617 12.9521 10.4501L13.0567 9.86246H12.4598H9.62284V8.47465H14.453C14.4837 8.72901 14.5 8.99085 14.5 9.2603C14.5 10.8963 13.9542 12.2623 13.0285 13.2166C12.1045 14.1693 10.7692 14.7457 9.12284 14.7457H9.12269C8.38424 14.7459 7.65299 14.6006 6.97071 14.3181L6.77944 14.7801L6.97071 14.3181C6.28844 14.0357 5.66851 13.6215 5.14635 13.0993C4.62419 12.5772 4.21003 11.9572 3.92754 11.275C3.64506 10.5927 3.49978 9.86144 3.5 9.12299L3.5 9.12269C3.49978 8.38424 3.64506 7.65299 3.92754 6.97071C4.21003 6.28844 4.62419 5.66851 5.14635 5.14635C5.66851 4.62419 6.28844 4.21003 6.97071 3.92754C7.65299 3.64506 8.38424 3.49978 9.12269 3.5H9.12284C10.4454 3.5 11.5712 3.92065 12.481 4.6253L11.464 5.64234Z" fill="#476285" stroke="#476285"/>
</svg>
