<svg width="47" height="50" viewBox="0 0 47 50" fill="none" xmlns="http://www.w3.org/2000/svg">
<g filter="url(#filter0_d_1_4696)">
<path d="M6.21973 20.8838C6.56862 22.6481 7.3852 24.2851 8.58309 25.621C10.6157 27.8445 13.7137 29.0806 17.775 29.3195V28.3875C17.775 27.5695 18.434 26.9065 19.2472 26.9065C20.0603 26.9065 20.7193 27.5695 20.7193 28.3875V29.3279C22.5017 29.2504 24.261 28.8945 25.9343 28.2735C26.5021 28.0563 27.0517 27.7941 27.5783 27.489C27.595 27.4757 27.6126 27.4639 27.6308 27.453C30.0477 26.0386 31.7407 23.6449 32.2771 20.8843C29.9206 22.7434 24.4622 23.7283 19.2486 23.7283C14.0346 23.7278 8.57575 22.7429 6.21973 20.8838Z" fill="url(#paint0_linear_1_4696)"/>
<path d="M32.4965 18.8094C32.4916 16.9517 27.0523 14.8828 19.2482 14.8828C11.4407 14.8828 6 16.9532 6 18.8119C6 20.6706 11.4407 22.741 19.2482 22.741C27.0013 22.741 32.418 20.6992 32.493 18.851L32.4925 18.8352C32.4926 18.8262 32.4965 18.8183 32.4965 18.8094ZM8.4512 19.9957C8.25296 19.9957 8.07384 19.8752 7.99774 19.691C7.92169 19.5064 7.96388 19.2942 8.10425 19.1529L10.5579 16.6846C10.7497 16.495 11.0584 16.4961 11.2488 16.6876C11.4392 16.8791 11.4407 17.1892 11.2518 17.3827L8.79815 19.851C8.70586 19.9438 8.58123 19.9957 8.4512 19.9957ZM10.4141 20.983C10.2158 20.983 10.0367 20.8625 9.96062 20.6784C9.88457 20.4938 9.92677 20.2815 10.0671 20.1403L13.993 16.191C14.1849 16.0015 14.4935 16.0025 14.6839 16.194C14.8743 16.3855 14.8758 16.6956 14.6869 16.8891L10.761 20.8384C10.6688 20.9312 10.5442 20.983 10.4141 20.983ZM12.8678 21.4767C12.6695 21.4767 12.4904 21.3562 12.4143 21.1721C12.3383 20.9875 12.3805 20.7752 12.5208 20.634L17.4281 15.6973C17.62 15.5078 17.9287 15.5088 18.1191 15.7003C18.3095 15.8918 18.3109 16.2019 18.122 16.3954L13.2147 21.332C13.1224 21.4249 12.9978 21.4767 12.8678 21.4767ZM15.3214 21.9703C15.1232 21.9703 14.9441 21.8499 14.868 21.6657C14.7919 21.4811 14.8341 21.2688 14.9745 21.1276L20.3725 15.6973C20.4962 15.5709 20.6778 15.5206 20.8481 15.566C21.0183 15.6114 21.1518 15.7452 21.197 15.917C21.2421 16.0883 21.1921 16.2709 21.0664 16.3953L15.6684 21.8257C15.5761 21.9185 15.4515 21.9703 15.3214 21.9703ZM18.6127 21.8257C18.4208 22.0153 18.1122 22.0143 17.9218 21.8228C17.7314 21.6312 17.7299 21.3212 17.9188 21.1277L22.8261 16.191C22.9498 16.0647 23.1314 16.0143 23.3017 16.0597C23.4719 16.1051 23.6054 16.2389 23.6505 16.4107C23.6957 16.582 23.6457 16.7647 23.52 16.8891L18.6127 21.8257ZM21.2102 21.9703C21.0119 21.9703 20.8328 21.8499 20.7567 21.6657C20.6807 21.4811 20.7229 21.2688 20.8632 21.1276L25.2798 16.6846C25.4035 16.5582 25.5851 16.5079 25.7554 16.5533C25.9256 16.5987 26.0591 16.7325 26.1042 16.9043C26.1494 17.0756 26.0994 17.2582 25.9737 17.3827L21.5571 21.8257C21.4649 21.9185 21.3402 21.9703 21.2102 21.9703ZM24.6453 21.4767C24.4471 21.4767 24.2679 21.3562 24.1919 21.1721C24.1158 20.9875 24.158 20.7752 24.2984 20.634L28.2242 16.6846C28.3479 16.5582 28.5295 16.5079 28.6998 16.5533C28.87 16.5987 29.0035 16.7325 29.0487 16.9043C29.0938 17.0756 29.0438 17.2582 28.9181 17.3827L24.9923 21.332C24.9 21.4249 24.7753 21.4767 24.6453 21.4767ZM30.3903 18.8637L28.4274 20.8384C28.2355 21.028 27.9268 21.027 27.7364 20.8354C27.546 20.6439 27.5446 20.3338 27.7335 20.1403L29.6964 18.1657C29.8201 18.0393 30.0017 17.9889 30.1719 18.0344C30.3422 18.0798 30.4757 18.2135 30.5208 18.3853C30.566 18.5566 30.5159 18.7393 30.3903 18.8637Z" fill="url(#paint1_linear_1_4696)"/>
<path d="M28.2623 28.2222C28.2348 28.2389 28.2098 28.2562 28.1818 28.273C28.1641 28.2873 28.1455 28.3001 28.1264 28.3115C27.8908 28.4493 27.6484 28.5737 27.405 28.6956L29.7566 33.2245C29.8145 33.344 29.919 33.4338 30.0456 33.4728C30.1722 33.5118 30.3087 33.4965 30.4235 33.4309C30.66 33.303 30.7498 33.0068 30.6237 32.7679L28.2623 28.2222Z" fill="url(#paint2_linear_1_4696)"/>
<path d="M7.87075 32.7486C7.80893 32.8651 7.79664 33.0019 7.83639 33.1277C7.87614 33.2536 7.96497 33.3578 8.08227 33.417C8.32126 33.5394 8.61423 33.4452 8.73742 33.2052L11.0787 28.6966C10.7823 28.5475 10.4957 28.3886 10.2194 28.2197L7.87075 32.7486Z" fill="url(#paint3_linear_1_4696)"/>
<path d="M19.2473 27.894C18.9764 27.8945 18.757 28.1152 18.7566 28.3877V34.8053C18.7566 35.0779 18.9765 35.299 19.2473 35.299C19.5182 35.299 19.738 35.0778 19.738 34.8053V28.3877C19.7376 28.1152 19.5182 27.894 19.2473 27.894Z" fill="url(#paint4_linear_1_4696)"/>
<path d="M15.7766 12.0372L15.5798 12.2737C15.4061 12.483 15.4335 12.7945 15.6411 12.9693C15.7334 13.0463 15.8447 13.0843 15.9561 13.0843C16.0965 13.0843 16.2359 13.0241 16.332 12.9085L16.5293 12.6716C17.1363 11.9414 17.1363 10.8811 16.5283 10.1495C16.226 9.78613 16.226 9.25838 16.5283 8.8951L17.7066 7.47776C17.8808 7.26844 17.8533 6.95694 17.6453 6.78218C17.4377 6.60641 17.1276 6.63409 16.9538 6.84386L15.7756 8.2612C15.1681 8.99184 15.1681 10.0522 15.7766 10.7833C16.0783 11.1467 16.0783 11.6744 15.7766 12.0372Z" fill="url(#paint5_linear_1_4696)"/>
<path d="M18.7214 12.0373L18.5246 12.2737C18.3509 12.483 18.3783 12.7945 18.5859 12.9693C18.6782 13.0463 18.7896 13.0843 18.901 13.0843C19.0413 13.0843 19.1807 13.0241 19.2769 12.9085L19.4742 12.6716C20.0817 11.9415 20.0817 10.8811 19.4732 10.1495C19.1709 9.78615 19.1709 9.25839 19.4732 8.89511L20.6514 7.47777C20.8246 7.26845 20.7977 6.95695 20.5896 6.78219C20.3806 6.60642 20.0719 6.63556 19.8982 6.84387L18.7204 8.26121C18.1129 8.99186 18.1129 10.0522 18.7214 10.7833C19.0232 11.1467 19.0232 11.6744 18.7214 12.0373Z" fill="url(#paint6_linear_1_4696)"/>
<path d="M21.6665 12.0373L21.4697 12.2737C21.2959 12.483 21.323 12.7945 21.531 12.9693C21.6228 13.0463 21.7346 13.0843 21.8455 13.0843C21.9859 13.0843 22.1253 13.0241 22.2219 12.9085L22.4187 12.6716C23.0262 11.9415 23.0262 10.8811 22.4177 10.1495C22.1159 9.78615 22.1159 9.25839 22.4182 8.89511L23.596 7.47777C23.7692 7.26845 23.7423 6.95695 23.5342 6.78219C23.3252 6.60642 23.0165 6.63556 22.8427 6.84387L21.6655 8.26121C21.058 8.99186 21.058 10.0522 21.6665 10.7833C21.9683 11.1467 21.9683 11.6739 21.6665 12.0373Z" fill="url(#paint7_linear_1_4696)"/>
</g>
<defs>
<filter id="filter0_d_1_4696" x="0" y="0.666504" width="46.4966" height="48.6323" filterUnits="userSpaceOnUse" color-interpolation-filters="sRGB">
<feFlood flood-opacity="0" result="BackgroundImageFix"/>
<feColorMatrix in="SourceAlpha" type="matrix" values="0 0 0 0 0 0 0 0 0 0 0 0 0 0 0 0 0 0 127 0" result="hardAlpha"/>
<feOffset dx="4" dy="4"/>
<feGaussianBlur stdDeviation="5"/>
<feComposite in2="hardAlpha" operator="out"/>
<feColorMatrix type="matrix" values="0 0 0 0 0 0 0 0 0 0 0 0 0 0 0 0 0 0 0.25 0"/>
<feBlend mode="normal" in2="BackgroundImageFix" result="effect1_dropShadow_1_4696"/>
<feBlend mode="normal" in="SourceGraphic" in2="effect1_dropShadow_1_4696" result="shape"/>
</filter>
<linearGradient id="paint0_linear_1_4696" x1="19.2484" y1="20.8838" x2="19.2484" y2="29.3279" gradientUnits="userSpaceOnUse">
<stop stop-color="#FFD994"/>
<stop offset="0.520833" stop-color="#FF9F39"/>
<stop offset="1" stop-color="#E95818"/>
</linearGradient>
<linearGradient id="paint1_linear_1_4696" x1="19.2482" y1="14.8828" x2="19.2482" y2="22.741" gradientUnits="userSpaceOnUse">
<stop stop-color="#FFD994"/>
<stop offset="0.520833" stop-color="#FF9F39"/>
<stop offset="1" stop-color="#E95818"/>
</linearGradient>
<linearGradient id="paint2_linear_1_4696" x1="29.0429" y1="28.2222" x2="29.0429" y2="33.494" gradientUnits="userSpaceOnUse">
<stop stop-color="#FFD994"/>
<stop offset="0.520833" stop-color="#FF9F39"/>
<stop offset="1" stop-color="#E95818"/>
</linearGradient>
<linearGradient id="paint3_linear_1_4696" x1="9.44609" y1="28.2197" x2="9.44609" y2="33.4706" gradientUnits="userSpaceOnUse">
<stop stop-color="#FFD994"/>
<stop offset="0.520833" stop-color="#FF9F39"/>
<stop offset="1" stop-color="#E95818"/>
</linearGradient>
<linearGradient id="paint4_linear_1_4696" x1="19.2473" y1="27.894" x2="19.2473" y2="35.299" gradientUnits="userSpaceOnUse">
<stop stop-color="#FFD994"/>
<stop offset="0.520833" stop-color="#FF9F39"/>
<stop offset="1" stop-color="#E95818"/>
</linearGradient>
<linearGradient id="paint5_linear_1_4696" x1="16.5706" y1="6.6665" x2="16.5706" y2="13.0843" gradientUnits="userSpaceOnUse">
<stop stop-color="#FFD994"/>
<stop offset="0.520833" stop-color="#FF9F39"/>
<stop offset="1" stop-color="#E95818"/>
</linearGradient>
<linearGradient id="paint6_linear_1_4696" x1="19.5152" y1="6.66699" x2="19.5152" y2="13.0843" gradientUnits="userSpaceOnUse">
<stop stop-color="#FFD994"/>
<stop offset="0.520833" stop-color="#FF9F39"/>
<stop offset="1" stop-color="#E95818"/>
</linearGradient>
<linearGradient id="paint7_linear_1_4696" x1="22.46" y1="6.66699" x2="22.46" y2="13.0843" gradientUnits="userSpaceOnUse">
<stop stop-color="#FFD994"/>
<stop offset="0.520833" stop-color="#FF9F39"/>
<stop offset="1" stop-color="#E95818"/>
</linearGradient>
</defs>
</svg>
