<svg width="33" height="33" viewBox="0 0 33 33" fill="none" xmlns="http://www.w3.org/2000/svg">
<path d="M8.25 26.125H12.375V17.875H20.625V26.125H24.75V13.75L16.5 7.5625L8.25 13.75V26.125ZM8.25 28.875C7.49375 28.875 6.84658 28.606 6.3085 28.0679C5.7695 27.5289 5.5 26.8813 5.5 26.125V13.75C5.5 13.3146 5.59762 12.9021 5.79287 12.5125C5.98721 12.1229 6.25625 11.8021 6.6 11.55L14.85 5.3625C15.1021 5.17917 15.3656 5.04167 15.6406 4.95C15.9156 4.85833 16.2021 4.8125 16.5 4.8125C16.7979 4.8125 17.0844 4.85833 17.3594 4.95C17.6344 5.04167 17.8979 5.17917 18.15 5.3625L26.4 11.55C26.7438 11.8021 27.0133 12.1229 27.2085 12.5125C27.4028 12.9021 27.5 13.3146 27.5 13.75V26.125C27.5 26.8813 27.231 27.5289 26.6929 28.0679C26.1539 28.606 25.5063 28.875 24.75 28.875H17.875V20.625H15.125V28.875H8.25Z" fill="white"/>
</svg>
