<svg width="33" height="33" viewBox="0 0 33 33" fill="none" xmlns="http://www.w3.org/2000/svg">
<path d="M26 21.7425V14.8125L29.9375 10.875L24.6875 5.625L20.75 9.56249H11.5625V8.24999H15.5V3H5V8.24999H8.93749V16.125H5V21.375H8.93749V27.9375H14.555C14.784 28.3342 15.1129 28.6641 15.5089 28.8943C15.905 29.1246 16.3544 29.2472 16.8125 29.25C17.2739 29.2527 17.7279 29.1338 18.1288 28.9052C18.5296 28.6766 18.8631 28.3463 19.0956 27.9478C19.3282 27.5492 19.4515 27.0963 19.4532 26.6349C19.455 26.1734 19.335 25.7197 19.1055 25.3194C18.876 24.9191 18.545 24.5863 18.1459 24.3547C17.7468 24.123 17.2937 24.0007 16.8323 24C16.3708 23.9993 15.9173 24.1203 15.5175 24.3507C15.1177 24.5811 14.7857 24.9128 14.555 25.3125H11.5625V21.375H15.5V16.125H11.5625V12.1875H20.75L23.375 14.8125V21.7293C22.8745 22.0183 22.4834 22.4642 22.2623 22.9981C22.0412 23.532 22.0024 24.1239 22.1519 24.6821C22.3015 25.2402 22.631 25.7334 23.0895 26.0852C23.5479 26.437 24.1096 26.6276 24.6875 26.6276C25.2653 26.6276 25.827 26.437 26.2855 26.0852C26.7439 25.7334 27.0735 25.2402 27.223 24.6821C27.3726 24.1239 27.3338 23.532 27.1126 22.9981C26.8915 22.4642 26.5004 22.0183 26 21.7293V21.7425ZM6.3125 6.93749V4.3125H14.1875V6.93749H6.3125ZM16.8125 25.3125C17.0721 25.3125 17.3258 25.3894 17.5417 25.5337C17.7575 25.6779 17.9257 25.8829 18.0251 26.1227C18.1244 26.3625 18.1504 26.6264 18.0998 26.881C18.0491 27.1356 17.9241 27.3695 17.7406 27.553C17.557 27.7366 17.3231 27.8616 17.0685 27.9122C16.8139 27.9629 16.55 27.9369 16.3102 27.8375C16.0704 27.7382 15.8654 27.57 15.7212 27.3541C15.577 27.1383 15.5 26.8845 15.5 26.625C15.5 26.2769 15.6383 25.943 15.8844 25.6969C16.1305 25.4507 16.4644 25.3125 16.8125 25.3125ZM14.1875 17.4375V20.0625H6.3125V17.4375H14.1875ZM24.6875 7.47562L28.0868 10.875L24.6875 14.2744L21.2881 10.875L24.6875 7.47562ZM24.6875 25.3125C24.4279 25.3125 24.1741 25.2355 23.9583 25.0913C23.7424 24.947 23.5742 24.7421 23.4749 24.5022C23.3755 24.2624 23.3495 23.9985 23.4002 23.7439C23.4508 23.4893 23.5758 23.2554 23.7594 23.0719C23.9429 22.8883 24.1768 22.7633 24.4314 22.7127C24.686 22.662 24.9499 22.688 25.1897 22.7874C25.4296 22.8867 25.6345 23.0549 25.7788 23.2708C25.923 23.4866 26 23.7404 26 24C26 24.3481 25.8617 24.6819 25.6155 24.928C25.3694 25.1742 25.0356 25.3125 24.6875 25.3125Z" fill="white"/>
</svg>
