<svg width="47" height="56" viewBox="0 0 47 56" fill="none" xmlns="http://www.w3.org/2000/svg">
<g filter="url(#filter0_d_1_1502)">
<path d="M39.4302 23.6519C40.3752 23.6506 41.2812 23.2783 41.9495 22.6166C42.6178 21.9549 42.9938 21.0578 42.995 20.122V11.8592C42.9956 11.756 42.9719 11.6541 42.9256 11.5616C42.8793 11.4691 42.8118 11.3886 42.7284 11.3266L29.493 1.30941H29.4789C29.4221 1.26628 29.3582 1.2331 29.2901 1.21129H29.2736C16.713 -2.77176 8.80242 3.72727 5.58677 11.1257C2.8406 17.4449 3.69937 24.1261 7.84928 28.9945C11.676 33.4705 17.8855 36.7037 23.8922 39.8177C28.5965 42.2613 33.4613 44.7912 36.9152 47.8282C37.0464 47.9446 37.2182 48.0061 37.3942 47.9995C37.5703 47.993 37.7369 47.919 37.8589 47.7931C39.8617 45.7264 41.346 43.2226 42.1923 40.4836C43.0385 37.7446 43.223 34.847 42.7308 32.0245C42.1575 28.7726 40.4659 26.0838 38.3402 23.6519H39.4302ZM25.8621 23.5187C25.9895 23.6495 26.0816 23.7523 26.1264 23.7944C27.2676 25.0975 28.3213 26.4733 29.2807 27.9129C26.1311 25.2708 22.545 23.0071 19.2445 20.9046C18.2323 20.2645 17.2462 19.6385 16.3025 19.0357C16.1531 17.7689 16.1785 16.4879 16.378 15.2279C17.5576 8.23594 20.4783 4.00293 25.0553 2.58725L24.9916 2.64799C24.9468 2.69004 24.8972 2.73209 24.8547 2.77648C22.4837 4.45613 20.5114 7.34823 19.9829 9.62592C19.3129 12.5367 19.7894 17.3117 25.8621 23.5187ZM37.4083 46.2817C37.3753 46.3191 37.3446 46.3588 37.3092 46.3961C34.4923 44.0414 30.9392 42.0066 27.2848 40.077C28.1052 39.973 28.8953 39.7033 29.6061 39.2846C30.3169 38.8659 30.9333 38.307 31.4171 37.6427C31.9008 36.9785 32.2416 36.2228 32.4183 35.4228C32.5951 34.6227 32.604 33.7952 32.4444 32.9916C32.3047 32.283 32.1043 31.5874 31.8452 30.9125C35.7733 35.0053 38.3213 39.9555 37.4083 46.2817ZM34.0794 11.5275C37.2125 12.6722 41.6432 14.2911 41.6432 18.3022V20.129C41.6427 20.336 41.5918 20.5399 41.4948 20.7233C41.3979 20.9067 41.2576 21.0642 41.0861 21.1825C40.9145 21.3008 40.7166 21.3764 40.5093 21.4029C40.3019 21.4293 40.0912 21.4058 39.8949 21.3345C37.4272 20.4234 34.4309 16.8585 31.8145 15.4568C31.1846 15.1181 30.5641 14.77 29.9602 14.4103C26.544 12.3708 23.1514 7.11929 25.5083 4.06133C25.514 4.0531 25.5203 4.04529 25.5271 4.03797C25.8991 3.55875 26.377 3.17035 26.9242 2.90266C27.4715 2.63497 28.0734 2.4951 28.6838 2.49381H28.8324L31.0619 4.19449C29.8516 4.31597 28.7333 5.26209 28.7263 6.58899C28.7192 8.09344 30.1395 10.0347 34.0794 11.5275ZM15.8188 18.7063C11.5321 15.8727 8.26923 13.2375 8.12768 10.2964C8.10707 9.83543 8.16042 9.37417 8.28575 8.92977C10.4091 5.62418 14.5826 1.29072 21.8797 1.29072C23.3289 1.29893 24.7734 1.4555 26.1901 1.75794C26.1335 1.78831 26.0816 1.82568 26.0249 1.85839L25.999 1.87241C20.6293 2.98205 17.2438 7.42298 15.9344 15.1415C15.7443 16.3202 15.7054 17.518 15.8188 18.7063ZM25.5106 39.1472L24.5221 38.631C21.691 37.1639 18.8387 35.6734 16.2152 34.0499C16.576 33.9868 16.9232 33.8628 17.2415 33.6831C17.7699 33.3815 18.202 32.9387 18.4883 32.4054C18.7745 31.872 18.9033 31.2696 18.8599 30.6672C18.8609 30.6594 18.8609 30.6516 18.8599 30.6438C18.7207 28.9104 18.204 27.0579 17.6543 25.0956C17.1494 23.2921 16.6375 21.4559 16.3803 19.6034C17.2297 20.1547 18.1097 20.7107 19.0085 21.2807C22.6677 23.5981 26.6808 26.1445 30.0404 29.1651C30.7532 30.4113 31.2658 31.7598 31.5597 33.1621C31.7205 33.9829 31.6754 34.8302 31.4282 35.6296C31.181 36.4291 30.7394 37.1562 30.1422 37.7472C29.5449 38.3381 28.8102 38.7748 28.0027 39.0189C27.1951 39.263 26.3394 39.3071 25.5106 39.1472ZM17.2084 25.2194C17.751 27.1607 18.2654 28.9945 18.388 30.6882L18.624 30.6719L18.388 30.6905C18.4194 31.0733 18.3695 31.4584 18.2415 31.8209C18.1135 32.1834 17.9103 32.5154 17.645 32.7955C17.3797 33.0756 17.0581 33.2976 16.7009 33.4473C16.3437 33.5969 15.9589 33.6709 15.5711 33.6644C12.9759 32.0034 10.6308 30.1976 8.86612 28.1348C5.05829 23.6565 4.29154 17.5103 6.82773 11.656C7.08018 11.0769 7.36208 10.5108 7.67234 9.95999C7.67234 10.0815 7.67234 10.1936 7.67234 10.3268C7.83749 13.5389 11.3339 16.3025 15.8778 19.281C16.1161 21.2901 16.6682 23.2711 17.2084 25.2194ZM37.9391 45.6556C38.6469 39.0561 35.6743 33.9751 31.3592 29.7888C30.248 27.4317 28.5517 25.2568 26.8106 23.222C26.7587 23.1636 26.6549 23.0538 26.5039 22.902C20.7143 16.9823 20.2377 12.525 20.8558 9.81982C21.1885 8.37845 22.1864 6.62403 23.4935 5.16397C23.3971 5.52681 23.3401 5.8988 23.3236 6.27362C23.2994 6.93209 23.3978 7.58935 23.6138 8.21258V8.23594C24.3216 10.6725 25.7513 12.7983 27.3532 14.6626C27.516 14.8518 27.6811 15.041 27.8486 15.2256C28.0767 15.481 28.3079 15.7309 28.5422 15.9754C29.0141 16.4754 29.5001 16.9519 29.9743 17.4098C30.7717 18.1807 31.6069 18.9493 32.4138 19.6922L33.2938 20.5075L33.5132 20.7107L34.195 21.3508L34.4923 21.6311L35.1387 22.2525C35.3322 22.4418 35.5209 22.631 35.7096 22.8226C35.8488 22.9627 35.988 23.1029 36.1249 23.2454C38.6611 25.8758 40.7702 28.7469 41.3884 32.2557C41.7977 34.6028 41.7025 37.009 41.109 39.3171C40.5154 41.6253 39.4369 43.7835 37.9438 45.6509L37.9391 45.6556Z" fill="url(#paint0_linear_1_1502)"/>
</g>
<defs>
<filter id="filter0_d_1_1502" x="0" y="0" width="47" height="56" filterUnits="userSpaceOnUse" color-interpolation-filters="sRGB">
<feFlood flood-opacity="0" result="BackgroundImageFix"/>
<feColorMatrix in="SourceAlpha" type="matrix" values="0 0 0 0 0 0 0 0 0 0 0 0 0 0 0 0 0 0 127 0" result="hardAlpha"/>
<feOffset dy="4"/>
<feGaussianBlur stdDeviation="2"/>
<feComposite in2="hardAlpha" operator="out"/>
<feColorMatrix type="matrix" values="0 0 0 0 0.541667 0 0 0 0 0.541667 0 0 0 0 0.541667 0 0 0 0.25 0"/>
<feBlend mode="normal" in2="BackgroundImageFix" result="effect1_dropShadow_1_1502"/>
<feBlend mode="normal" in="SourceGraphic" in2="effect1_dropShadow_1_1502" result="shape"/>
</filter>
<linearGradient id="paint0_linear_1_1502" x1="23.5" y1="0" x2="23.5" y2="48" gradientUnits="userSpaceOnUse">
<stop stop-color="#F1A501"/>
<stop offset="1" stop-color="#ED532E"/>
</linearGradient>
</defs>
</svg>
