<svg width="33" height="33" viewBox="0 0 33 33" fill="none" xmlns="http://www.w3.org/2000/svg">
<path d="M8.54545 11.4545C8.30435 11.4545 8.07312 11.5503 7.90263 11.7208C7.73214 11.8913 7.63636 12.1225 7.63636 12.3636C7.63636 12.6047 7.73214 12.836 7.90263 13.0065C8.07312 13.1769 8.30435 13.2727 8.54545 13.2727H21.2727C21.5138 13.2727 21.7451 13.1769 21.9156 13.0065C22.086 12.836 22.1818 12.6047 22.1818 12.3636C22.1818 12.1225 22.086 11.8913 21.9156 11.7208C21.7451 11.5503 21.5138 11.4545 21.2727 11.4545H8.54545ZM8.54545 15.0909C8.30435 15.0909 8.07312 15.1867 7.90263 15.3572C7.73214 15.5277 7.63636 15.7589 7.63636 16V19.6364C7.63636 19.8775 7.73214 20.1087 7.90263 20.2792C8.07312 20.4497 8.30435 20.5455 8.54545 20.5455H12.1818C12.4229 20.5455 12.6542 20.4497 12.8246 20.2792C12.9951 20.1087 13.0909 19.8775 13.0909 19.6364V16C13.0909 15.7589 12.9951 15.5277 12.8246 15.3572C12.6542 15.1867 12.4229 15.0909 12.1818 15.0909H8.54545ZM9.45455 18.7273V16.9091H11.2727V18.7273H9.45455ZM15.8182 15.0909C15.5771 15.0909 15.3458 15.1867 15.1754 15.3572C15.0049 15.5277 14.9091 15.7589 14.9091 16C14.9091 16.2411 15.0049 16.4723 15.1754 16.6428C15.3458 16.8133 15.5771 16.9091 15.8182 16.9091H21.2727C21.5138 16.9091 21.7451 16.8133 21.9156 16.6428C22.086 16.4723 22.1818 16.2411 22.1818 16C22.1818 15.7589 22.086 15.5277 21.9156 15.3572C21.7451 15.1867 21.5138 15.0909 21.2727 15.0909H15.8182ZM15.8182 18.7273C15.5771 18.7273 15.3458 18.8231 15.1754 18.9935C15.0049 19.164 14.9091 19.3953 14.9091 19.6364C14.9091 19.8775 15.0049 20.1087 15.1754 20.2792C15.3458 20.4497 15.5771 20.5455 15.8182 20.5455H21.2727C21.5138 20.5455 21.7451 20.4497 21.9156 20.2792C22.086 20.1087 22.1818 19.8775 22.1818 19.6364C22.1818 19.3953 22.086 19.164 21.9156 18.9935C21.7451 18.8231 21.5138 18.7273 21.2727 18.7273H15.8182ZM4 9.63636C4 8.67194 4.38312 7.74702 5.06507 7.06507C5.74702 6.38312 6.67194 6 7.63636 6H22.1818C23.1462 6 24.0712 6.38312 24.7531 7.06507C25.4351 7.74702 25.8182 8.67194 25.8182 9.63636C26.7826 9.63636 27.7075 10.0195 28.3895 10.7014C29.0714 11.3834 29.4545 12.3083 29.4545 13.2727V21.4545C29.4545 22.6601 28.9757 23.8162 28.1232 24.6687C27.2708 25.5211 26.1146 26 24.9091 26H8.54545C7.33993 26 6.18377 25.5211 5.33133 24.6687C4.47889 23.8162 4 22.6601 4 21.4545V9.63636ZM24.9091 21.4545C24.668 21.4545 24.4368 21.3588 24.2663 21.1883C24.0958 21.0178 24 20.7866 24 20.5455V9.63636C24 9.15415 23.8084 8.69169 23.4675 8.35071C23.1265 8.00974 22.664 7.81818 22.1818 7.81818H7.63636C7.15415 7.81818 6.69169 8.00974 6.35072 8.35071C6.00974 8.69169 5.81818 9.15415 5.81818 9.63636V21.4545C5.81818 22.1779 6.10552 22.8716 6.61698 23.383C7.12844 23.8945 7.82214 24.1818 8.54545 24.1818H24.9091C25.6324 24.1818 26.3261 23.8945 26.8376 23.383C27.349 22.8716 27.6364 22.1779 27.6364 21.4545V13.2727C27.6364 12.7905 27.4448 12.3281 27.1038 11.9871C26.7629 11.6461 26.3004 11.4545 25.8182 11.4545V20.5455C25.8182 20.7866 25.7224 21.0178 25.5519 21.1883C25.3814 21.3588 25.1502 21.4545 24.9091 21.4545Z" fill="white"/>
</svg>
