<svg width="28" height="28" viewBox="0 0 28 28" fill="none" xmlns="http://www.w3.org/2000/svg">
<path d="M24.1111 0.1H3.88889V1.9H24.1111V0.1ZM3.88889 0.1C1.80294 0.1 0.1 1.80294 0.1 3.88889H1.9C1.9 2.79706 2.79706 1.9 3.88889 1.9V0.1ZM0.1 3.88889V24.1111H1.9V3.88889H0.1ZM0.1 24.1111C0.1 26.1971 1.80294 27.9 3.88889 27.9V26.1C2.79706 26.1 1.9 25.2029 1.9 24.1111H0.1ZM3.88889 27.9H24.1111V26.1H3.88889V27.9ZM24.1111 27.9C26.1971 27.9 27.9 26.1971 27.9 24.1111H26.1C26.1 25.2029 25.2029 26.1 24.1111 26.1V27.9ZM27.9 24.1111V3.88889H26.1V24.1111H27.9ZM27.9 3.88889C27.9 1.80294 26.1971 0.1 24.1111 0.1V1.9C25.2029 1.9 26.1 2.79706 26.1 3.88889H27.9Z" fill="url(#paint0_linear_1_2635)"/>
<defs>
<linearGradient id="paint0_linear_1_2635" x1="1" y1="13.7451" x2="27" y2="13.7451" gradientUnits="userSpaceOnUse">
<stop stop-color="#8882E3"/>
<stop offset="0.46817" stop-color="#DF8381"/>
<stop offset="1" stop-color="#F6C07C"/>
</linearGradient>
</defs>
</svg>
