<svg width="255" height="70" viewBox="0 0 255 70" fill="none" xmlns="http://www.w3.org/2000/svg">
<path d="M102.324 46.975V30.525L106.349 26.5H118.949L122.974 30.525V46.975L118.949 51H106.349L102.324 46.975ZM116.429 46.94L118.214 45.155V32.345L116.429 30.56H108.869L107.084 32.345V45.155L108.869 46.94H116.429ZM127.706 26.01H132.326V51H127.706V26.01ZM137.041 29.93V27.69L138.651 26.08H141.101L142.711 27.69V29.93L141.101 31.54H138.651L137.041 29.93ZM137.566 33.57H142.186V51H137.566V33.57ZM145.177 33.57H149.972L154.032 45.715H154.172L158.232 33.57H163.027L156.342 51H151.862L145.177 33.57ZM164.952 47.43V37.21L168.557 33.57H178.392L182.032 37.21V43.825H169.572V46.065L170.692 47.22H176.397L177.447 46.135V45.225H181.997V47.5L178.532 51H168.487L164.952 47.43ZM177.412 40.605V38.575L176.222 37.35H170.762L169.572 38.575V40.605H177.412ZM186.407 26.5H201.772L205.517 30.28V38.855L201.737 42.67H191.167V51H186.407V26.5ZM199.602 38.68L200.827 37.455V31.715L199.602 30.49H191.167V38.68H199.602ZM209.209 46.975V30.525L213.234 26.5H225.834L229.859 30.525V46.975L225.834 51H213.234L209.209 46.975ZM223.314 46.94L225.099 45.155V32.345L223.314 30.56H215.754L213.969 32.345V45.155L215.754 46.94H223.314ZM234.066 47.22V43.72H238.756V45.785L239.911 46.94H247.156L248.346 45.75V41.69L247.191 40.535H237.916L234.136 36.755V30.28L237.916 26.5H248.976L252.756 30.28V33.815H248.066V31.715L246.911 30.56H239.981L238.826 31.715V35.32L239.981 36.475H249.256L253.036 40.255V47.15L249.186 51H237.846L234.066 47.22Z" fill="white"/>
<path fill-rule="evenodd" clip-rule="evenodd" d="M24.3887 19.5981C23.4939 20.3715 22.6509 21.2346 21.8732 22.1855C15.0964 30.473 15.8517 42.2972 23.5601 48.5954C31.2686 54.8937 43.0112 53.2811 49.788 44.9936C49.8842 44.8759 49.979 44.7574 50.0723 44.6383C31.642 42.8288 25.4734 28.5136 24.3887 19.5981Z" fill="#C4C224"/>
<ellipse cx="37.1883" cy="32.1623" rx="17.9279" ry="10.2599" transform="rotate(43.8271 37.1883 32.1623)" fill="#A6A413"/>
<ellipse cx="37.7037" cy="32.1982" rx="9.24807" ry="4.79538" transform="rotate(43.1563 37.7037 32.1982)" fill="#92900C"/>
<ellipse cx="35.5709" cy="34.3066" rx="6.02208" ry="1.83312" transform="rotate(43.1563 35.5709 34.3066)" fill="#8E8D09"/>
<ellipse cx="59.1955" cy="44.2377" rx="17.9833" ry="10.2599" transform="rotate(49.5398 59.1955 44.2377)" fill="#C4C224"/>
<path fill-rule="evenodd" clip-rule="evenodd" d="M70.9369 57.8653C71.0481 57.7682 71.1585 57.6695 71.268 57.5694C78.8697 50.6212 79.4676 39.1616 72.6034 31.9737C66.2943 25.367 55.8769 24.6686 48.3307 29.9942C48.4526 38.7377 53.0023 53.3292 70.9369 57.8653Z" fill="#C4C224"/>
<ellipse cx="67.1299" cy="37.5061" rx="7.66615" ry="4.08158" transform="rotate(48.6416 67.1299 37.5061)" fill="#92900C"/>
</svg>
