<svg width="71" height="71" viewBox="0 0 71 71" fill="none" xmlns="http://www.w3.org/2000/svg">
<g clip-path="url(#clip0_1_4340)">
<path d="M54.0804 59.7049L42.1116 51.7257C41.5762 51.3722 40.8591 51.4886 40.463 51.9932L36.9781 56.4736C35.8486 57.9456 33.8102 58.3657 32.1908 57.4602L31.5466 57.1064C29.222 55.8382 26.3281 54.2606 20.5834 48.5159C14.8387 42.7712 13.2599 39.8773 11.9929 37.5515L11.6378 36.9072C10.7325 35.2883 11.1527 33.2502 12.6245 32.1213L17.1036 28.6351C17.6088 28.2392 17.7253 27.5218 17.3712 26.9864L9.39321 15.0164C9.03036 14.4733 8.30535 14.3099 7.74457 14.6448L2.73667 17.6478C1.66227 18.2749 0.872075 19.2932 0.531418 20.4897C-1.11333 26.4792 0.270238 36.9667 16.1994 52.8973C32.1286 68.8278 42.6137 70.2139 48.6082 68.5678C49.805 68.2267 50.8232 67.4361 51.4501 66.3611L54.4518 61.3532C54.7876 60.7929 54.6241 60.0674 54.0804 59.7049Z" fill="url(#paint0_linear_1_4340)"/>
<path d="M70.7976 2.10214C70.6664 1.97093 70.4878 1.89811 70.3022 1.90019H17.1667C16.9811 1.89811 16.8024 1.97093 16.6712 2.10214C16.54 2.23336 16.4672 2.41201 16.4693 2.59759V21.0594L19.4823 25.579C20.5691 27.221 20.2119 29.4222 18.6619 30.6364L14.1866 34.1226C13.7075 34.486 13.5683 35.1462 13.8594 35.6724L14.2246 36.3381C15.389 38.5527 16.8094 40.623 18.4565 42.5064H70.3022C70.6826 42.5092 70.994 42.2046 70.9997 41.8242V2.59759C71.0018 2.41201 70.929 2.23336 70.7976 2.10214ZM34.7674 25.1655V25.1592L21.7765 39.0771C21.2988 39.5895 20.4963 39.6175 19.984 39.1399C19.4717 38.6623 19.4436 37.8597 19.9212 37.3475L32.9121 23.4359C33.3898 22.9235 34.1923 22.8955 34.7045 23.3731C35.2169 23.8508 35.2451 24.6533 34.7674 25.1655ZM43.7344 24.1663C42.8205 24.1705 41.93 23.8767 41.1981 23.3294L20.0023 7.25679C19.4442 6.83167 19.3363 6.03453 19.7614 5.47625C20.1865 4.91811 20.9837 4.8102 21.5419 5.23532L42.729 21.3079C43.3286 21.7436 44.1405 21.7436 44.7403 21.3079L65.9334 5.23532C66.4916 4.812 67.2873 4.9213 67.7108 5.47944C68.1342 6.03759 68.0248 6.83333 67.4666 7.25679L46.2708 23.3294C45.5388 23.8767 44.6485 24.1705 43.7344 24.1663ZM67.5655 39.1394C67.3196 39.3691 66.9924 39.4916 66.6561 39.4799C66.3197 39.4683 66.0018 39.3235 65.7724 39.0773L52.7828 25.1593C52.3414 24.6421 52.3866 23.8688 52.885 23.4065C53.3835 22.9441 54.1579 22.9571 54.6406 23.4359L67.6277 37.3475C68.1051 37.8594 68.0774 38.6616 67.5655 39.1394Z" fill="url(#paint1_linear_1_4340)"/>
</g>
<defs>
<linearGradient id="paint0_linear_1_4340" x1="16.6991" y1="16.8617" x2="50.2937" y2="29.5482" gradientUnits="userSpaceOnUse">
<stop stop-color="#EB5400"/>
<stop offset="0.46875" stop-color="#1BA4E5" stop-opacity="0.5"/>
<stop offset="1" stop-color="#B40FE7"/>
</linearGradient>
<linearGradient id="paint1_linear_1_4340" x1="31.2221" y1="3.67708" x2="62.5784" y2="20.3847" gradientUnits="userSpaceOnUse">
<stop stop-color="#EB5400"/>
<stop offset="0.46875" stop-color="#1BA4E5" stop-opacity="0.5"/>
<stop offset="1" stop-color="#B40FE7"/>
</linearGradient>
<clipPath id="clip0_1_4340">
<rect width="71" height="71" fill="white"/>
</clipPath>
</defs>
</svg>
