<svg width="71" height="71" viewBox="0 0 71 71" fill="none" xmlns="http://www.w3.org/2000/svg">
<g clip-path="url(#clip0_1_4367)">
<path d="M35.499 0C22.0401 0 11.0928 10.9473 11.0928 24.4062C11.0928 37.8652 22.0401 48.8125 35.499 48.8125C48.9535 48.8125 59.9053 37.8652 59.9053 24.4062C59.9053 10.9473 48.9535 0 35.499 0ZM48.3278 20.9539L44.1122 26.2345L44.5737 33.1348C44.627 33.9025 44.2764 34.6436 43.6418 35.0918C43.2558 35.3624 42.8076 35.5 42.355 35.5C42.0621 35.5 41.7648 35.4423 41.4896 35.3225L35.499 32.7798L29.5128 35.3225C28.8028 35.6242 27.9863 35.5399 27.3606 35.0918C26.7305 34.6436 26.38 33.9025 26.4288 33.1348L26.8903 26.2345L22.6746 20.9539C22.2043 20.3681 22.0667 19.5827 22.3019 18.8682C22.5371 18.1538 23.1184 17.6124 23.8461 17.4216L30.1385 15.7753L33.5909 9.96219C34.3896 8.61319 36.6084 8.61319 37.4027 9.96219L40.8551 15.7753L47.1519 17.4216C47.8752 17.6124 48.4565 18.1582 48.6961 18.8682C48.9358 19.5782 48.7938 20.3637 48.3278 20.9539Z" fill="url(#paint0_linear_1_4367)"/>
<path d="M10.5374 38.7971L0.295671 56.5782C-0.152516 57.3592 -0.0859538 58.331 0.459859 59.041C1.00567 59.751 1.92423 60.0705 2.79398 59.8309L15.8225 56.3297L19.2882 69.3582C19.5189 70.2235 20.2511 70.8669 21.1386 70.9867C21.2362 70.9956 21.3383 71.0001 21.4315 71.0001C22.2169 71.0001 22.9535 70.5829 23.3529 69.8907L33.04 53.1258C23.415 52.3093 15.1435 46.7491 10.5374 38.7971Z" fill="url(#paint1_linear_1_4367)"/>
<path d="M70.7058 56.5782L60.4597 38.7971C55.858 46.7491 47.582 52.3093 37.9571 53.1258L47.6442 69.8907C48.0435 70.5829 48.7802 71.0001 49.5656 71.0001C49.6588 71.0001 49.7608 70.9956 49.854 70.9823C50.746 70.8625 51.4737 70.2191 51.7089 69.3537L55.1746 56.3252L68.2031 59.8264C69.0728 60.0661 69.987 59.7466 70.5372 59.0366C71.0875 58.331 71.1496 57.3592 70.7058 56.5782Z" fill="url(#paint2_linear_1_4367)"/>
</g>
<defs>
<linearGradient id="paint0_linear_1_4367" x1="26.0147" y1="2.13604" x2="56.0337" y2="13.4727" gradientUnits="userSpaceOnUse">
<stop stop-color="#EB5400"/>
<stop offset="0.46875" stop-color="#1BA4E5" stop-opacity="0.5"/>
<stop offset="1" stop-color="#B40FE7"/>
</linearGradient>
<linearGradient id="paint1_linear_1_4367" x1="10.1003" y1="40.2063" x2="30.2867" y2="48.0279" gradientUnits="userSpaceOnUse">
<stop stop-color="#EB5400"/>
<stop offset="0.46875" stop-color="#1BA4E5" stop-opacity="0.5"/>
<stop offset="1" stop-color="#B40FE7"/>
</linearGradient>
<linearGradient id="paint2_linear_1_4367" x1="48.0581" y1="40.2063" x2="68.2455" y2="48.0288" gradientUnits="userSpaceOnUse">
<stop stop-color="#EB5400"/>
<stop offset="0.46875" stop-color="#1BA4E5" stop-opacity="0.5"/>
<stop offset="1" stop-color="#B40FE7"/>
</linearGradient>
<clipPath id="clip0_1_4367">
<rect width="71" height="71" fill="white"/>
</clipPath>
</defs>
</svg>
