<svg width="70" height="70" viewBox="0 0 70 70" fill="none" xmlns="http://www.w3.org/2000/svg">
<path d="M44.4989 59.1992H10.8008C7.10678 59.1992 4.10156 56.194 4.10156 52.5C4.10156 48.806 7.10678 45.8008 10.8008 45.8008H23.9258C29.8814 45.8008 34.7266 40.9556 34.7266 35C34.7266 29.0444 29.8814 24.1992 23.9258 24.1992H16.7511C16.8827 24.8629 16.9531 25.5482 16.9531 26.25C16.9531 26.9518 16.8827 27.6371 16.7511 28.3008H23.9258C27.6198 28.3008 30.625 31.306 30.625 35C30.625 38.694 27.6198 41.6992 23.9258 41.6992H10.8008C4.84518 41.6992 0 46.5444 0 52.5C0 58.4556 4.84518 63.3008 10.8008 63.3008H44.4989C44.3673 62.6371 44.2969 61.9518 44.2969 61.25C44.2969 60.5482 44.3673 59.8629 44.4989 59.1992Z" fill="url(#paint0_linear_1_4354)"/>
<path d="M54.8242 54.8242C51.281 54.8242 48.3984 57.7068 48.3984 61.25C48.3984 64.7932 51.281 67.6758 54.8242 67.6758C58.3674 67.6758 61.25 64.7932 61.25 61.25C61.25 57.7068 58.3674 54.8242 54.8242 54.8242Z" fill="url(#paint1_linear_1_4354)"/>
<path d="M19.5508 2.32422H6.42578C5.2932 2.32422 4.375 3.24242 4.375 4.375C4.375 6.06881 4.375 18.4487 4.375 20.1618C1.83477 21.0198 0 23.4239 0 26.25C0 29.7932 2.88258 32.6758 6.42578 32.6758C9.96898 32.6758 12.8516 29.7932 12.8516 26.25C12.8516 23.4239 11.0168 21.0198 8.47656 20.1618V15.1758H19.5508C20.6834 15.1758 21.6016 14.2576 21.6016 13.125V4.375C21.6016 3.24242 20.6834 2.32422 19.5508 2.32422Z" fill="url(#paint2_linear_1_4354)"/>
<path d="M54.8242 6.69922C46.4562 6.69922 39.6484 13.507 39.6484 21.875C39.6484 26.3937 41.6171 30.6037 45.0661 33.4981L52.9971 49.0563C53.7567 50.5464 55.8919 50.5463 56.6513 49.0563L64.5824 33.4981C68.0314 30.6037 70 26.3937 70 21.875C70 13.507 63.1922 6.69922 54.8242 6.69922ZM54.8242 28.3008C51.281 28.3008 48.3984 25.4182 48.3984 21.875C48.3984 18.3318 51.281 15.4492 54.8242 15.4492C58.3674 15.4492 61.25 18.3318 61.25 21.875C61.25 25.4182 58.3674 28.3008 54.8242 28.3008Z" fill="url(#paint3_linear_1_4354)"/>
<defs>
<linearGradient id="paint0_linear_1_4354" x1="13.6033" y1="25.9103" x2="39.9972" y2="37.2539" gradientUnits="userSpaceOnUse">
<stop stop-color="#EB5400"/>
<stop offset="0.46875" stop-color="#1BA4E5" stop-opacity="0.5"/>
<stop offset="1" stop-color="#B40FE7"/>
</linearGradient>
<linearGradient id="paint1_linear_1_4354" x1="52.3272" y1="55.3866" x2="60.2307" y2="58.3714" gradientUnits="userSpaceOnUse">
<stop stop-color="#EB5400"/>
<stop offset="0.46875" stop-color="#1BA4E5" stop-opacity="0.5"/>
<stop offset="1" stop-color="#B40FE7"/>
</linearGradient>
<linearGradient id="paint2_linear_1_4354" x1="6.60358" y1="3.65241" x2="20.7602" y2="7.4574" gradientUnits="userSpaceOnUse">
<stop stop-color="#EB5400"/>
<stop offset="0.46875" stop-color="#1BA4E5" stop-opacity="0.5"/>
<stop offset="1" stop-color="#B40FE7"/>
</linearGradient>
<linearGradient id="paint3_linear_1_4354" x1="48.9269" y1="8.60167" x2="68.8686" y2="13.8594" gradientUnits="userSpaceOnUse">
<stop stop-color="#EB5400"/>
<stop offset="0.46875" stop-color="#1BA4E5" stop-opacity="0.5"/>
<stop offset="1" stop-color="#B40FE7"/>
</linearGradient>
</defs>
</svg>
