<svg width="69" height="65" viewBox="0 0 69 65" fill="none" xmlns="http://www.w3.org/2000/svg">
<path d="M18.7466 44.5714C17.7891 43.5749 16.1123 43.4511 15.0179 44.2821L14.9891 44.2635L12.5123 46.7403C11.9692 47.2817 11.6715 48.0041 11.6715 48.7721C11.6388 50.319 13.0007 51.6778 14.5459 51.6465C15.4454 51.6611 16.2465 51.2114 16.8332 50.5502L18.7466 48.6368C19.1476 48.2358 19.4166 47.7368 19.5283 47.1937C19.7287 46.2544 19.4323 45.2471 18.7466 44.5714Z" fill="url(#paint0_linear_1_4347)"/>
<path d="M11.858 36.1513C10.7368 35.03 8.9151 35.0312 7.79258 36.1513C7.5317 36.4136 5.92312 38.0211 5.62536 38.3203C3.03976 41.1263 6.88153 44.9696 9.6891 42.3857C9.6891 42.3857 11.5701 40.5046 11.858 40.2168C12.9799 39.0968 12.9799 37.273 11.858 36.1513Z" fill="url(#paint1_linear_1_4347)"/>
<path d="M24.6242 51.1272C23.8561 51.1272 23.1337 51.4267 22.5906 51.9697L20.4217 54.1387C20.4116 54.1488 20.4014 54.159 20.3913 54.1708C19.3044 55.2446 19.3207 57.146 20.4217 58.2041C21.5434 59.3241 23.3672 59.3241 24.4871 58.2041L26.6577 56.0335C28.4555 54.2403 27.1632 51.1176 24.6242 51.1272Z" fill="url(#paint2_linear_1_4347)"/>
<path d="M43.9148 19.2215C39.4772 22.0197 33.5271 21.4885 29.6647 17.6261L24.6366 12.5997L30.9116 6.32476C24.1719 -1.2385 12.3207 -1.7183 5.14673 5.5044C-2.06615 12.6682 -1.60378 24.5053 5.94358 31.2471C11.4399 28.1751 18.1989 32.4658 17.7541 38.7249C21.3936 39.1182 24.4747 42.4169 24.6415 46.0572C28.0639 45.984 31.4634 48.5471 32.297 51.9278C35.1462 51.1641 38.3395 52.1102 40.2908 54.3674L40.3483 54.2997C43.1772 55.9981 46.17 52.5096 44.0365 49.9687L44.0416 49.9619C43.9976 49.9196 32.6167 38.5388 32.6167 38.5388C33.511 37.6445 35.311 35.8446 36.2051 34.9504L47.4996 46.245C50.3055 48.8301 54.1497 44.9858 51.5634 42.1796L40.2705 30.885C41.1648 29.9907 42.9647 28.1908 43.8588 27.2967C46.3972 29.8349 52.5555 35.9934 55.1534 38.5912C56.223 39.7055 58.1491 39.7049 59.2188 38.5912C60.3388 37.4695 60.3388 35.6458 59.2188 34.5258L43.9148 19.2215Z" fill="url(#paint3_linear_1_4347)"/>
<path d="M63.8526 5.50406C56.9753 -1.37147 45.7857 -1.37147 38.9084 5.50406C37.5712 6.84212 33.0776 11.3368 31.8147 12.5995L33.2527 14.0376C35.7532 16.5381 39.8203 16.5381 42.3191 14.0376L44.1142 12.2426C45.0685 13.2074 62.5871 30.696 63.0794 31.223C70.6087 24.4788 71.0548 12.6586 63.8526 5.50406Z" fill="url(#paint4_linear_1_4347)"/>
<path d="M36.3524 57.5833C35.2305 56.4631 33.4081 56.4618 32.2869 57.5833L30.118 59.7522C29.0019 60.8221 29.0025 62.7476 30.118 63.8176C31.1895 64.9312 33.1127 64.9305 34.1835 63.8176L36.3524 61.6487C37.4661 60.5802 37.4661 58.6493 36.3524 57.5833Z" fill="url(#paint5_linear_1_4347)"/>
<defs>
<linearGradient id="paint0_linear_1_4347" x1="14.0917" y1="44.079" x2="18.9611" y2="45.919" gradientUnits="userSpaceOnUse">
<stop stop-color="#EB5400"/>
<stop offset="0.46875" stop-color="#1BA4E5" stop-opacity="0.5"/>
<stop offset="1" stop-color="#B40FE7"/>
</linearGradient>
<linearGradient id="paint1_linear_1_4347" x1="7.19432" y1="35.6578" x2="12.0705" y2="37.4993" gradientUnits="userSpaceOnUse">
<stop stop-color="#EB5400"/>
<stop offset="0.46875" stop-color="#1BA4E5" stop-opacity="0.5"/>
<stop offset="1" stop-color="#B40FE7"/>
</linearGradient>
<linearGradient id="paint2_linear_1_4347" x1="22.0037" y1="51.4736" x2="26.8687" y2="53.3091" gradientUnits="userSpaceOnUse">
<stop stop-color="#EB5400"/>
<stop offset="0.46875" stop-color="#1BA4E5" stop-opacity="0.5"/>
<stop offset="1" stop-color="#B40FE7"/>
</linearGradient>
<linearGradient id="paint3_linear_1_4347" x1="18.3599" y1="2.73922" x2="54.311" y2="17.7314" gradientUnits="userSpaceOnUse">
<stop stop-color="#EB5400"/>
<stop offset="0.46875" stop-color="#1BA4E5" stop-opacity="0.5"/>
<stop offset="1" stop-color="#B40FE7"/>
</linearGradient>
<linearGradient id="paint4_linear_1_4347" x1="43.1821" y1="1.69853" x2="64.8331" y2="11.5459" gradientUnits="userSpaceOnUse">
<stop stop-color="#EB5400"/>
<stop offset="0.46875" stop-color="#1BA4E5" stop-opacity="0.5"/>
<stop offset="1" stop-color="#B40FE7"/>
</linearGradient>
<linearGradient id="paint5_linear_1_4347" x1="31.6982" y1="57.0888" x2="36.5611" y2="58.9245" gradientUnits="userSpaceOnUse">
<stop stop-color="#EB5400"/>
<stop offset="0.46875" stop-color="#1BA4E5" stop-opacity="0.5"/>
<stop offset="1" stop-color="#B40FE7"/>
</linearGradient>
</defs>
</svg>
