<svg width="48" height="48" viewBox="0 0 48 48" fill="none" xmlns="http://www.w3.org/2000/svg">
<path d="M24 32.25C26.2782 32.25 28.125 30.4032 28.125 28.125C28.125 25.8468 26.2782 24 24 24C21.7218 24 19.875 25.8468 19.875 28.125C19.875 30.4032 21.7218 32.25 24 32.25Z" fill="white"/>
<path d="M26.25 32.25H24L25.875 38.25L24 40.5L22.125 38.25L24 32.25H21.75C20.3576 32.25 19.0223 32.8031 18.0377 33.7877C17.0531 34.7723 16.5 36.1076 16.5 37.5V46.5H31.5V37.5C31.5 36.1076 30.9469 34.7723 29.9623 33.7877C28.9777 32.8031 27.6424 32.25 26.25 32.25Z" fill="white"/>
<path d="M25.62 10.5525L24 7.26746L22.38 10.5525L18.75 11.0775L21.375 13.635L20.7525 17.25L24 15.5475L27.2475 17.25L26.625 13.635L29.25 11.0775L25.62 10.5525Z" fill="white"/>
<path d="M23.25 1.5H24.75V4.5H23.25V1.5Z" fill="white"/>
<path d="M27.1426 5.24249L28.9426 2.84249L30.1426 3.74249L28.3426 6.14249L27.1426 5.24249Z" fill="white"/>
<path d="M17.8574 3.75751L19.0574 2.85751L20.8574 5.25751L19.6574 6.15751L17.8574 3.75751Z" fill="white"/>
<path d="M9.33 38.2501H8.58L8.9775 36.6601C9.08951 36.2356 9.0355 35.7845 8.82648 35.3985C8.61745 35.0125 8.26915 34.7207 7.8525 34.5826C7.43745 34.4534 6.98871 34.4878 6.59825 34.6789C6.20779 34.8699 5.9052 35.2031 5.7525 35.6101L5.0025 37.5976C4.92869 37.7916 4.79701 37.9583 4.62529 38.075C4.45357 38.1917 4.25011 38.2528 4.0425 38.2501H0.75V39.7501H4.0425C4.55277 39.7492 5.05069 39.5931 5.47004 39.3024C5.88938 39.0116 6.21027 38.6001 6.39 38.1226L7.14 36.1351C7.15563 36.0848 7.1902 36.0426 7.2364 36.0174C7.2826 35.9922 7.33679 35.986 7.3875 36.0001C7.43653 36.027 7.47461 36.0702 7.49515 36.1223C7.51569 36.1743 7.51741 36.2319 7.5 36.2851L6.87 38.8051C6.8431 38.9146 6.84127 39.0289 6.86465 39.1392C6.88802 39.2496 6.936 39.3533 7.005 39.4426C7.07487 39.5333 7.1646 39.6069 7.2673 39.6576C7.37001 39.7083 7.48296 39.7348 7.5975 39.7351H9.33C9.38898 39.7346 9.44741 39.7464 9.50162 39.7696C9.55583 39.7928 9.60465 39.827 9.645 39.8701C9.68379 39.9152 9.71308 39.9676 9.73112 40.0244C9.74916 40.0811 9.75558 40.1408 9.75 40.2L9.42 43.1176C9.41234 43.223 9.36449 43.3214 9.28633 43.3926C9.20818 43.4638 9.10568 43.5023 9 43.5001H5.1L4.1625 42.8775C4.04047 42.7955 3.89703 42.7512 3.75 42.7501H0.75V44.2501H3.525L4.5 44.8726C4.61132 44.9479 4.74083 44.9919 4.875 45.0001H9C9.47225 44.9992 9.92763 44.8243 10.2791 44.5089C10.6305 44.1934 10.8533 43.7595 10.905 43.2901L11.25 40.3726C11.2797 40.1037 11.2521 39.8316 11.1689 39.5742C11.0857 39.3169 10.9488 39.0801 10.7674 38.8795C10.5859 38.6789 10.364 38.5191 10.1162 38.4106C9.86844 38.3021 9.60047 38.2474 9.33 38.2501Z" fill="white"/>
<path d="M12.9971 23.0776L12.2996 22.7551L13.3271 21.4876C13.4792 21.3251 13.5979 21.1342 13.6763 20.9258C13.7547 20.7175 13.7913 20.4957 13.784 20.2732C13.7767 20.0507 13.7256 19.8318 13.6337 19.629C13.5418 19.4262 13.4108 19.2435 13.2483 19.0914C13.0858 18.9392 12.8949 18.8205 12.6865 18.7421C12.4782 18.6637 12.2564 18.6271 12.0339 18.6345C11.8114 18.6418 11.5925 18.6928 11.3897 18.7847C11.1869 18.8767 11.0042 19.0076 10.8521 19.1701L9.35207 20.6701C9.20593 20.812 9.02038 20.9065 8.81968 20.9413C8.61897 20.9761 8.41244 20.9495 8.22707 20.8651L5.24957 19.4551L4.61957 20.8126L7.61957 22.2076C8.07428 22.4142 8.58012 22.481 9.07286 22.3995C9.5656 22.3181 10.023 22.092 10.3871 21.7501L11.8871 20.2501C11.9246 20.2148 11.9743 20.1951 12.0258 20.1951C12.0774 20.1951 12.127 20.2148 12.1646 20.2501C12.1987 20.2927 12.2172 20.3456 12.2172 20.4001C12.2172 20.4546 12.1987 20.5075 12.1646 20.5501L10.4996 22.5526C10.4269 22.6415 10.3755 22.7458 10.3495 22.8577C10.3235 22.9695 10.3235 23.0858 10.3496 23.1976C10.3752 23.3083 10.4257 23.4117 10.4971 23.5001C10.5686 23.5884 10.6592 23.6594 10.7621 23.7076L12.3371 24.4576C12.3898 24.4828 12.4369 24.5184 12.4755 24.5622C12.5142 24.606 12.5436 24.6572 12.5621 24.7126C12.5772 24.7691 12.5811 24.8279 12.5733 24.8859C12.5656 24.9438 12.5465 24.9996 12.5171 25.0501L11.0171 27.5626C10.9678 27.6509 10.8884 27.7185 10.7933 27.753C10.6983 27.7874 10.594 27.7864 10.4996 27.7501L6.95957 26.1001L6.37457 25.1401C6.29836 25.0129 6.18613 24.9111 6.05207 24.8476L3.31457 23.5426L2.68457 24.9001L5.19707 26.0701L5.78207 27.0001C5.85828 27.1274 5.97051 27.2291 6.10457 27.2926L9.85457 29.0401C10.1086 29.1573 10.3848 29.2187 10.6646 29.2201C10.9947 29.2212 11.3195 29.1368 11.6073 28.9751C11.8951 28.8135 12.1362 28.5801 12.3071 28.2976L13.8071 25.7851C13.9472 25.5547 14.037 25.2973 14.0706 25.0297C14.1042 24.7622 14.0809 24.4905 14.0021 24.2326C13.9215 23.9821 13.7909 23.7505 13.6182 23.5519C13.4454 23.3534 13.2341 23.192 12.9971 23.0776Z" fill="white"/>
<path d="M43.0124 37.59L42.2624 35.6025C42.1232 35.1749 41.8197 34.82 41.4189 34.6161C41.018 34.4121 40.5526 34.3758 40.1249 34.515C39.6972 34.6543 39.3424 34.9577 39.1385 35.3585C38.9345 35.7594 38.8982 36.2249 39.0374 36.6525L39.4424 38.25H38.6924C38.42 38.2441 38.1496 38.2964 37.8991 38.4035C37.6486 38.5106 37.4239 38.6699 37.2399 38.8709C37.056 39.0718 36.9172 39.3098 36.8326 39.5687C36.7481 39.8277 36.7199 40.1018 36.7499 40.3725L37.0724 43.29C37.1245 43.7633 37.3505 44.2004 37.7067 44.5164C38.0629 44.8324 38.5238 45.0047 38.9999 45H43.1249C43.2719 44.9989 43.4154 44.9545 43.5374 44.8725L44.4749 44.25H47.2499V42.75H44.2499C44.1029 42.7512 43.9594 42.7955 43.8374 42.8775L42.8999 43.5H38.9999C38.8967 43.5004 38.7971 43.4622 38.7207 43.3927C38.6443 43.3233 38.5968 43.2278 38.5874 43.125L38.2499 40.2075C38.2443 40.1483 38.2507 40.0885 38.2688 40.0318C38.2868 39.9751 38.3161 39.9226 38.3549 39.8775C38.3952 39.8345 38.4441 39.8003 38.4983 39.7771C38.5525 39.7538 38.6109 39.7421 38.6699 39.7425H40.4024C40.5169 39.7422 40.6299 39.7157 40.7326 39.665C40.8353 39.6143 40.925 39.5408 40.9949 39.45C41.0639 39.3608 41.1119 39.2571 41.1352 39.1467C41.1586 39.0363 41.1568 38.9221 41.1299 38.8125L40.4999 36.2925C40.4825 36.2393 40.4842 36.1818 40.5047 36.1297C40.5253 36.0777 40.5634 36.0345 40.6124 36.0075C40.6622 35.9923 40.7159 35.9962 40.763 36.0184C40.8101 36.0406 40.8473 36.0795 40.8674 36.1275L41.6174 38.115C41.7955 38.5928 42.1147 39.0051 42.5326 39.2971C42.9506 39.5892 43.4475 39.7471 43.9574 39.75H47.2499V38.25H43.9574C43.7514 38.2492 43.5507 38.1855 43.3818 38.0676C43.213 37.9497 43.0841 37.7831 43.0124 37.59Z" fill="white"/>
<path d="M38.1526 29.07L41.9026 27.3225C42.0366 27.259 42.1489 27.1572 42.2251 27.03L42.8101 26.07L45.3226 24.9L44.6926 23.5425L42.0001 24.81C41.866 24.8734 41.7538 24.9752 41.6776 25.1025L41.0926 26.0625L37.5001 27.75C37.4068 27.7941 37.3003 27.8016 37.2017 27.771C37.1032 27.7405 37.0196 27.6741 36.9676 27.585L35.4676 25.0725C35.4382 25.022 35.419 24.9662 35.4113 24.9082C35.4036 24.8503 35.4074 24.7914 35.4226 24.735C35.441 24.6795 35.4705 24.6284 35.5091 24.5846C35.5478 24.5408 35.5949 24.5052 35.6476 24.48L37.2226 23.73C37.3255 23.6818 37.4161 23.6108 37.4875 23.5225C37.559 23.4341 37.6095 23.3307 37.6351 23.22C37.6611 23.1082 37.6611 22.9919 37.6351 22.88C37.6091 22.7682 37.5578 22.6638 37.4851 22.575L35.8501 20.565C35.816 20.5224 35.7974 20.4695 35.7974 20.415C35.7974 20.3604 35.816 20.3075 35.8501 20.265C35.8876 20.2296 35.9373 20.21 35.9888 20.21C36.0404 20.21 36.09 20.2296 36.1276 20.265L37.6276 21.765C37.993 22.1198 38.4573 22.3557 38.9594 22.4413C39.4614 22.527 39.9777 22.4586 40.4401 22.245L43.4401 20.85L42.7501 19.455L39.7501 20.85C39.5647 20.9344 39.3582 20.961 39.1575 20.9262C38.9568 20.8914 38.7712 20.7969 38.6251 20.655L37.1251 19.155C36.9729 18.9925 36.7902 18.8615 36.5875 18.7696C36.3847 18.6777 36.1658 18.6266 35.9433 18.6193C35.7208 18.612 35.499 18.6486 35.2906 18.727C35.0822 18.8054 34.8913 18.9241 34.7288 19.0762C34.5663 19.2284 34.4354 19.4111 34.3435 19.6139C34.2516 19.8166 34.2005 20.0355 34.1932 20.258C34.1859 20.4806 34.2225 20.7023 34.3009 20.9107C34.3792 21.1191 34.4979 21.31 34.6501 21.4725L35.6776 22.74L34.9801 23.0625C34.7359 23.1777 34.5183 23.3426 34.3414 23.5467C34.1645 23.7507 34.0321 23.9894 33.9526 24.2475C33.8738 24.5054 33.8504 24.777 33.8841 25.0446C33.9177 25.3121 34.0075 25.5696 34.1476 25.8L35.6476 28.3125C35.8211 28.6055 36.0696 28.8469 36.3676 29.0117C36.6656 29.1765 37.0022 29.2588 37.3426 29.25C37.6223 29.2485 37.8986 29.1872 38.1526 29.07Z" fill="white"/>
</svg>
