<svg width="45" height="45" viewBox="0 0 45 45" fill="none" xmlns="http://www.w3.org/2000/svg">
<g clip-path="url(#clip0_428_2143)">
<path d="M44.8603 42.8203C44.5088 43.8047 42.6806 44.9297 41.7666 44.9297C41.7666 44.9297 41.6963 44.9297 41.6259 44.9297C37.3369 44.5781 33.8916 34.1016 33.54 32.9062C33.4697 32.625 33.54 32.2734 33.8213 32.1328L34.4541 31.6406L34.0322 31.0078C34.4541 30.7969 34.8056 30.5156 35.2275 30.2344L35.6494 30.8672L36.2822 30.4453C36.5634 30.3047 36.915 30.3047 37.1259 30.5156C38.1103 31.3594 46.2666 38.7422 44.8603 42.8203Z" fill="white"/>
<path d="M5.34375 31.7812C5.34375 29.6719 7.10156 27.9141 9.21094 27.9141C11.3203 27.9141 13.0781 29.6719 13.0781 31.7812C13.0781 33.8906 11.3203 35.6484 9.21094 35.6484C7.10156 35.6484 5.34375 33.8906 5.34375 31.7812Z" fill="white"/>
<path d="M18.4223 43.383C18.4926 44.1565 17.8598 44.9299 17.0161 44.9299H1.4067C0.562954 44.9299 -0.0698587 44.1565 0.000453822 43.383C0.281704 40.008 2.46139 37.0549 5.55514 35.719C5.83639 35.5783 6.11764 35.6487 6.32858 35.8596L9.21139 38.7424L12.0942 35.8596C12.3051 35.6487 12.5864 35.5783 12.8676 35.719C16.0317 37.0549 18.1411 39.9377 18.4223 43.383Z" fill="white"/>
<path d="M27.5625 19.7581L28.2656 21.3752C27.9844 22.0081 27.1406 23.7659 25.1719 24.3987C23.2031 23.7659 22.3594 22.0081 22.0781 21.3752L22.7109 19.8284C23.3437 20.1799 24.1172 20.5315 24.9609 20.6721H25.1016H25.2422C26.1563 20.4612 26.9297 20.1799 27.5625 19.7581Z" fill="white"/>
<path d="M30.2344 13.6406C29.8828 14.9062 28.4766 18.4922 25.1016 19.2656C20.9531 18.4219 19.8281 13.2891 19.8281 13.2891V13.2187C24.5391 13.0781 26.7187 11.8125 27.6328 10.7578C28.125 11.6016 28.9687 12.7266 30.2344 13.6406Z" fill="white"/>
<path d="M19.6881 11.7423C19.6178 9.84387 19.899 8.3673 20.7428 7.45324C22.4303 5.48449 27.774 5.41418 29.4615 7.45324C30.3053 8.43762 30.6568 9.98449 30.5162 12.0939C28.9693 10.6876 28.4771 8.9298 28.4771 8.9298C28.3365 8.22668 27.2818 8.22668 27.0709 9.00012C27.0709 8.9298 26.5084 11.5314 19.6881 11.7423Z" fill="white"/>
<path d="M35.3672 24.3984C33.0469 27.2812 29.3203 29.25 25.1719 29.25C21.0234 29.25 17.2266 27.2812 14.9766 24.3984C15.1875 23.9062 15.2578 24.1172 20.9531 22.2891C21.4453 23.2734 22.5703 25.1719 24.9609 25.8047H25.1719H25.3125H25.5234C27.8438 25.1016 29.0391 23.2734 29.5313 22.2891C35.0859 24.1172 35.2266 23.9062 35.3672 24.3984Z" fill="white"/>
<path d="M25.1719 0.140625C16.3828 0.140625 9.21094 7.3125 9.21094 16.1016C9.21094 24.8906 16.3828 32.0625 25.1719 32.0625C33.9609 32.0625 41.1328 24.8906 41.1328 16.1016C41.2031 7.24219 34.0312 0.140625 25.1719 0.140625ZM25.1719 30.6562C17.2266 30.6562 10.6172 24.1875 10.6172 16.1016C10.6172 8.08594 17.1562 1.54687 25.1719 1.54687C33.1875 1.54687 39.7266 8.08594 39.7266 16.1016C39.7969 24.1172 33.2578 30.6562 25.1719 30.6562Z" fill="white"/>
</g>
<defs>
<clipPath id="clip0_428_2143">
<rect width="45" height="45" fill="white"/>
</clipPath>
</defs>
</svg>
