<svg width="41" height="42" viewBox="0 0 41 42" fill="none" xmlns="http://www.w3.org/2000/svg">
<path d="M7.42321 16.1666L7.77596 16.3756V18.6689L6.16853 19.0805L9.89665 21.3084L9.86973 22.6474L9.81243 22.8525L12.0173 22.3497V21.8133C12.0173 20.8399 12.4012 19.9485 13.0297 19.2898L10.6042 18.6689L10.6015 16.3773L10.9549 16.168C12.0463 15.5206 12.7242 14.3198 12.7242 13.0346V11.7687C12.7242 9.73103 11.1876 8.0257 9.29848 7.96771C8.34134 7.92952 7.42044 8.30008 6.72839 8.98745C6.03633 9.67516 5.65527 10.5987 5.65527 11.5863V13.0346C5.65527 14.3198 6.33249 15.5206 7.42321 16.1666Z" fill="white"/>
<path d="M12.6908 8.08008C14.3521 5.34052 17.3046 3.62069 20.4998 3.62069C23.6722 3.62069 26.6165 5.32461 28.2826 8.03729C28.3109 8.0083 28.3357 7.97648 28.3647 7.94748C28.8052 7.50939 29.3112 7.17172 29.8569 6.93129L30.6587 5.00815L28.403 2.69678L26.4152 4.02201L26.0349 3.78298C25.0819 3.18472 24.0519 2.74663 22.974 2.48251L22.5384 2.37502L22.0472 0H18.9518L18.4613 2.37502L18.0264 2.48145C16.9484 2.74593 15.9184 3.18401 14.9654 3.78228L14.5851 4.0213L12.5973 2.69607L10.3389 5.00956L11.1321 6.94649C11.7175 7.21663 12.2462 7.60345 12.6908 8.08008Z" fill="white"/>
<path d="M0 16.6551V29.8915L3.03399 30.9278L5.59926 20.4169L0 16.6551Z" fill="white"/>
<path d="M28.9828 17.1894C27.6653 16.2467 26.8621 14.692 26.8621 13.0344V11.5862C26.8621 10.7881 27.0451 10.0226 27.3816 9.33135C26.0441 6.73216 23.3836 5.06891 20.5001 5.06891C17.5889 5.06891 14.917 6.75479 13.5895 9.38969C13.9378 10.1075 14.138 10.9165 14.138 11.7686V13.0344C14.138 14.692 13.3341 16.2481 12.0166 17.1901V17.537L14.8449 18.2622L17.6725 17.537V17.1894C16.355 16.2467 15.5518 14.692 15.5518 13.0344V11.5862C15.5518 10.2029 16.0854 8.91129 17.0546 7.94813C18.0232 6.98497 19.2989 6.4797 20.6519 6.51931C23.2966 6.60134 25.4483 8.95549 25.4483 11.7686V13.0344C25.4483 14.692 24.6444 16.2481 23.3269 17.1901V17.537L26.1552 18.2622L28.9828 17.537V17.1894Z" fill="white"/>
<path d="M8.48326 22.1399L6.87099 21.1768L4.37891 31.3872L5.77026 31.862H5.82963L8.48326 22.3468V22.1399Z" fill="white"/>
<path d="M15.0367 19.7053C14.0917 19.9479 13.4307 20.8149 13.4307 21.8134V22.0276L13.8359 21.9357C15.3287 21.597 16.9072 21.6684 18.3655 22.1472L21.5655 23.1948C21.9196 23.2086 22.2724 23.2486 22.6141 23.3486L26.9608 24.6208H27.3939L27.5686 24.5268V21.8134C27.5686 20.8149 26.9076 19.9479 25.9625 19.7053L21.9141 18.669L21.9114 16.3774L22.2648 16.1681C23.3562 15.5207 24.0341 14.3199 24.0341 13.0346V11.7688C24.0341 9.73109 22.4974 8.02576 20.6084 7.96777C19.6543 7.92959 18.7303 8.30014 18.0383 8.98751C17.3462 9.67523 16.9651 10.5988 16.9651 11.5863V13.0346C16.9651 14.3199 17.6424 15.5207 18.7331 16.1667L19.0858 16.3756V18.669L15.0367 19.7053Z" fill="white"/>
<path d="M28.2762 11.5863V13.0346C28.2762 14.3199 28.9534 15.5207 30.0441 16.1667L30.3969 16.3756V18.669L27.9707 19.2899C28.5986 19.9486 28.9831 20.8393 28.9831 21.8134V23.7641L36.7569 19.5727L33.2251 18.669L33.2224 16.3774L33.5758 16.1681C34.6672 15.5207 35.3451 14.3199 35.3451 13.0346V11.7688C35.3451 9.73109 33.8085 8.02576 31.9194 7.96777C30.9602 7.92959 30.042 8.30014 29.3493 8.98751C28.6572 9.67523 28.2762 10.5988 28.2762 11.5863Z" fill="white"/>
<path d="M22.051 28.6185C21.5943 28.1978 20.8847 28.126 20.3559 28.4513L17.7233 30.0682C17.3574 30.2942 16.9353 30.4137 16.5062 30.4137C15.2005 30.4137 14.1381 29.3253 14.1381 27.9877V27.8445C14.1381 26.9203 14.6393 26.089 15.4473 25.6749L18.9776 23.8667L17.9363 23.5255C16.7147 23.1253 15.3948 23.063 14.1436 23.3498L9.37135 24.4367L7.46777 31.2616L9.63955 32.5963C9.70168 32.5108 9.76312 32.4245 9.83733 32.3485L11.0799 31.0756C11.4893 30.6548 12.0578 30.4137 12.6387 30.4137C13.8285 30.4137 14.7956 31.3853 14.837 32.5942C15.9902 32.6359 16.917 33.5853 16.9577 34.7666C18.1109 34.8083 19.0377 35.7577 19.0784 36.939C19.9147 36.9694 20.6289 37.4768 20.9765 38.2045L22.5542 39.5517C22.7617 39.7288 23.0261 39.8275 23.2974 39.8275C23.704 39.8275 24.0346 39.4887 24.0346 39.0722C24.0346 38.847 23.9376 38.6355 23.7695 38.492L20.0469 35.3147L20.9527 34.2016L24.7923 37.479C24.9245 37.5928 25.0922 37.655 25.2638 37.655H25.418C25.8246 37.655 26.1553 37.3163 26.1553 36.8998C26.1553 36.6746 26.0583 36.4631 25.8902 36.3196L22.1676 33.1423L23.0733 32.0292L26.9067 35.3016C27.0424 35.4183 27.2164 35.4826 27.3931 35.4826H27.5153C27.9353 35.4826 28.276 35.1336 28.276 34.704C28.276 34.4834 28.1842 34.2727 28.0244 34.1249L22.051 28.6185Z" fill="white"/>
<path d="M27.7437 26.0688L26.6685 26.0412L22.2262 24.7414C21.4989 24.5272 20.6978 24.6053 20.023 24.9507L16.0799 26.9704C15.754 27.1377 15.5518 27.4721 15.5518 27.8445V27.9877C15.5518 28.5265 15.9794 28.9653 16.5061 28.9653C16.6787 28.9653 16.8475 28.9176 16.9952 28.8271L19.6285 27.2094C20.0717 26.9365 20.577 26.7929 21.093 26.7929C21.7979 26.7929 22.4744 27.0588 22.9976 27.5418L28.9693 33.0482C29.0118 33.087 29.0522 33.127 29.0908 33.1691L41 27.0694V18.9214L27.7437 26.0688Z" fill="white"/>
<path d="M21.0064 40.1162C20.8977 40.3648 20.7506 40.595 20.5611 40.7891L20.0303 41.3329L20.5591 41.8106C20.6933 41.9326 20.8666 41.9997 21.0461 41.9997H21.1769C21.5835 41.9997 21.9142 41.661 21.9142 41.2445C21.9142 41.0193 21.8172 40.8078 21.6491 40.6643L21.0064 40.1162Z" fill="white"/>
<path d="M19.0009 38.3794C18.7924 38.3794 18.5881 38.4657 18.4404 38.617L17.1978 39.8899C17.05 40.0412 16.9658 40.2506 16.9658 40.4641C16.9658 40.9118 17.3213 41.2759 17.7583 41.2759C17.9668 41.2759 18.1711 41.1897 18.3189 41.0383L19.5615 39.7654C19.7092 39.6141 19.7934 39.4048 19.7934 39.1912C19.7934 38.7436 19.4379 38.3794 19.0009 38.3794Z" fill="white"/>
<path d="M15.5522 34.8463C15.5522 34.3986 15.1967 34.0344 14.7597 34.0344C14.5512 34.0344 14.3469 34.1207 14.1992 34.272L12.9566 35.5449C12.8088 35.6963 12.7246 35.9056 12.7246 36.1191C12.7246 36.5668 13.0801 36.931 13.5171 36.931C13.7256 36.931 13.9299 36.8447 14.0777 36.6934L15.3202 35.4205C15.468 35.2691 15.5522 35.0598 15.5522 34.8463Z" fill="white"/>
<path d="M17.6723 37.0186C17.6723 36.571 17.3168 36.2068 16.8798 36.2068C16.6713 36.2068 16.467 36.2931 16.3193 36.4444L15.0767 37.7173C14.9289 37.8686 14.8447 38.0779 14.8447 38.2915C14.8447 38.7391 15.2002 39.1033 15.6372 39.1033C15.8457 39.1033 16.05 39.0171 16.1978 38.8657L17.4404 37.5928C17.5881 37.4415 17.6723 37.2322 17.6723 37.0186Z" fill="white"/>
<path d="M13.4311 32.6737C13.4311 32.2261 13.0756 31.8619 12.6386 31.8619C12.4301 31.8619 12.2258 31.9482 12.0781 32.0995L10.8355 33.3724C10.6877 33.5237 10.6035 33.733 10.6035 33.9466C10.6035 34.3942 10.959 34.7584 11.396 34.7584C11.6045 34.7584 11.8088 34.6722 11.9566 34.5208L13.1992 33.2479C13.3469 33.0966 13.4311 32.8873 13.4311 32.6737Z" fill="white"/>
</svg>
