<svg width="77" height="77" viewBox="0 0 77 77" fill="none" xmlns="http://www.w3.org/2000/svg">
<g clip-path="url(#clip0_1_1759)">
<path fill-rule="evenodd" clip-rule="evenodd" d="M32.5323 49.7089C30.6195 49.1746 29.5396 48.8936 28.9067 48.7432L28.6932 47.9462C30.9217 45.8999 32.5606 41.8783 31.4432 37.9832C30.7352 35.5078 28.2461 33.7779 25.3918 33.7779C22.5375 33.7779 20.0484 35.5074 19.3389 37.9832C18.4201 41.1894 19.4375 45.2436 21.7584 47.6248C21.9088 47.7781 22.0618 47.9214 22.2174 48.0547L22.0322 48.7416C21.3986 48.892 20.3223 49.1729 18.4045 49.7086C15.7701 50.4435 14.6377 51.2766 14.451 54.5268C14.4497 54.5602 14.4497 54.5928 14.4497 54.6262L14.4539 54.7916C14.4873 56.1632 14.5022 56.789 14.5008 58.2072C14.5002 58.3652 14.5308 58.5218 14.5908 58.6679C14.6508 58.8141 14.7391 58.947 14.8505 59.0591C14.9619 59.1711 15.0944 59.2601 15.2402 59.3209C15.3861 59.3817 15.5425 59.4132 15.7005 59.4134H15.7041C16.0228 59.413 16.3285 59.2863 16.554 59.061C16.7795 58.8358 16.9065 58.5303 16.9072 58.2115C16.9086 56.7619 16.8937 56.1255 16.8589 54.7328L16.8561 54.617C16.9162 53.6309 17.0561 53.0639 17.3088 52.7823C17.5784 52.4828 18.175 52.2709 19.0533 52.026C22.3769 51.0979 23.0188 50.9822 23.1365 50.9689C23.3768 50.9417 23.6032 50.8428 23.7864 50.6851C23.9697 50.5274 24.1012 50.3182 24.1639 50.0847L24.3952 49.2213C24.7282 49.3042 25.0701 49.3466 25.4133 49.3475C25.7925 49.3467 26.1698 49.2947 26.5351 49.1929L26.7742 50.0847C26.8376 50.3181 26.9696 50.527 27.153 50.6846C27.3364 50.8422 27.5628 50.9412 27.803 50.9689C27.92 50.9822 28.5622 51.0979 31.8863 52.026C32.7624 52.2714 33.3613 52.4828 33.6308 52.7823C33.8812 53.0639 34.0218 53.6309 34.082 54.617L34.0791 54.7328C34.0465 56.1255 34.0293 56.7619 34.0329 58.2115C34.0333 58.5304 34.1602 58.8361 34.3858 59.0615C34.6114 59.2868 34.9172 59.4134 35.2361 59.4134H35.2374C35.5568 59.4128 35.8628 59.2854 36.0882 59.0592C36.3135 58.833 36.4399 58.5265 36.4394 58.2072C36.4365 56.789 36.4529 56.1632 36.4861 54.7916L36.489 54.6262C36.4907 54.5931 36.4903 54.5599 36.4876 54.5268C36.3025 51.2766 35.1701 50.4435 32.5336 49.7086L32.5323 49.7089ZM23.4817 45.9443C21.9918 44.4168 20.9013 41.2694 21.6519 38.6463C22.1358 36.9541 23.9302 36.1843 25.3918 36.1843C26.8535 36.1843 28.6463 36.9541 29.131 38.6463C29.9938 41.6567 28.6974 44.7567 26.9697 46.2601C25.8296 47.2541 24.6553 47.1474 23.4817 45.9443ZM12.4824 24.9648C14.9512 24.9648 17.3646 24.2327 19.4173 22.8612C21.47 21.4896 23.0699 19.5401 24.0147 17.2592C24.9594 14.9783 25.2066 12.4685 24.725 10.0472C24.2434 7.62584 23.0545 5.40169 21.3088 3.65599C19.5631 1.91029 17.339 0.721458 14.9176 0.239821C12.4963 -0.241816 9.98647 0.00537792 7.70561 0.950143C5.42474 1.89491 3.47525 3.49481 2.10367 5.54754C0.732081 7.60026 0 10.0136 0 12.4824C0.00346353 15.7919 1.31968 18.9648 3.65984 21.305C6 23.6451 9.17294 24.9614 12.4824 24.9648ZM11.872 18.7762C9.99466 17.6694 5.19133 13.9502 5.50565 10.0897C5.65318 8.28499 6.75389 6.81463 8.37977 6.25337C9.74531 5.78295 11.2384 6.04267 12.4824 6.9211C13.7262 6.04267 15.2195 5.78295 16.5854 6.25337C18.211 6.81463 19.3114 8.28545 19.459 10.0897C19.7734 13.9502 14.9699 17.6694 13.0933 18.7762C12.9084 18.8854 12.6975 18.943 12.4827 18.943C12.2679 18.943 12.0571 18.8854 11.8721 18.7762H11.872ZM7.90438 10.2855C7.97401 9.43413 8.44443 8.77722 9.1645 8.52878C9.35909 8.46208 9.56337 8.42803 9.76907 8.42802C10.4027 8.42802 11.054 8.74384 11.5981 9.33337C11.711 9.45514 11.8477 9.55229 11.9998 9.61872C12.152 9.68516 12.3162 9.71945 12.4822 9.71945C12.6482 9.71945 12.8124 9.68516 12.9645 9.61872C13.1167 9.55229 13.2534 9.45514 13.3663 9.33337C14.0871 8.55134 14.9967 8.25206 15.7999 8.52878C16.52 8.77722 16.9911 9.43413 17.06 10.2855C17.2154 12.1941 14.6661 14.8449 12.4824 16.3174C10.2992 14.8452 7.74993 12.1944 7.90453 10.2858L7.90438 10.2855ZM48.5219 61.2842C48.5213 61.8188 48.3086 62.3313 47.9306 62.7093C47.5526 63.0874 47.0401 63.3 46.5054 63.3006H25.6115C25.4003 63.3003 25.1928 63.3558 25.01 63.4617L11.55 71.2323V64.5043C11.55 64.1852 11.4232 63.8792 11.1976 63.6536C10.972 63.428 10.666 63.3012 10.3469 63.3012H4.43352C3.8961 63.3004 3.38091 63.0866 3.0009 62.7065C2.62089 62.3265 2.40705 61.8113 2.40625 61.2739V31.9157C2.40709 31.3783 2.62094 30.8632 3.00095 30.4832C3.38096 30.1032 3.89612 29.8894 4.43352 29.8886H33.3774C34.5822 33.2918 36.5866 36.3559 39.2219 38.8233C41.8573 41.2907 45.0467 43.0891 48.5217 44.0674V61.2842H48.5219ZM54.554 42.4853C43.5035 42.4853 34.5146 33.4965 34.5146 22.4459C34.5146 11.3954 43.5035 2.40623 54.554 2.40623C65.6046 2.40623 74.5938 11.3967 74.5938 22.4459C74.5938 33.4951 65.6034 42.4853 54.554 42.4853ZM65.4004 19.1551H61.7726C61.8102 16.994 61.5967 12.8 59.5157 11.2328C58.8736 10.7496 57.7862 10.3032 56.2506 10.9213C56.0209 11.0168 55.7968 11.1252 55.5794 11.2462C55.3863 11.3536 55.2264 11.5119 55.1171 11.704C55.0079 11.8961 54.9535 12.1144 54.96 12.3353L55.0565 15.4693C53.9597 17.5783 52.681 19.5877 51.2351 21.4746L50.6122 21.4923C50.3616 21.4999 50.1197 21.5857 49.9204 21.7377V21.3511C49.9199 20.8698 49.7286 20.4084 49.3883 20.0681C49.0481 19.7277 48.5867 19.5363 48.1054 19.5357H42.8806C42.3994 19.5362 41.9381 19.7276 41.5978 20.0679C41.2576 20.4081 41.0662 20.8694 41.0657 21.3506V32.4552C41.0664 32.9364 41.2579 33.3976 41.598 33.7379C41.9382 34.0783 42.3994 34.2699 42.8806 34.2708H48.1054C48.4786 34.27 48.8424 34.1544 49.1476 33.9396C49.4527 33.7249 49.6843 33.4214 49.811 33.0704C50.1011 33.1626 50.4063 33.2509 50.7221 33.3411C51.0563 33.4369 51.5131 33.5696 51.6351 33.6284C51.8061 33.7171 51.9959 33.7636 52.1886 33.7637H63.1732C63.7669 33.7651 64.3435 33.5657 64.8095 33.1979C65.2756 32.8301 65.6035 32.3156 65.7403 31.738L67.9674 22.4065C68.06 22.0187 68.0636 21.615 67.9778 21.2256C67.892 20.8363 67.7191 20.4714 67.4721 20.1584C67.225 19.8455 66.9102 19.5926 66.5514 19.4188C66.1926 19.2449 65.7991 19.1547 65.4004 19.1548V19.1551ZM47.5144 31.8646V21.942H43.4722V31.8644L47.5144 31.8646ZM65.6275 21.8486C65.6355 21.8143 65.6357 21.7787 65.628 21.7444C65.6203 21.7101 65.605 21.678 65.5832 21.6504C65.5613 21.6228 65.5335 21.6006 65.5019 21.5852C65.4702 21.5699 65.4355 21.562 65.4004 21.5619H60.5127C60.3443 21.562 60.1778 21.5266 60.0239 21.4582C59.8701 21.3898 59.7323 21.2898 59.6196 21.1647C59.5069 21.0396 59.4217 20.8922 59.3696 20.7321C59.3175 20.5719 59.2997 20.4027 59.3172 20.2352C59.5563 17.9115 59.1895 13.9986 58.069 13.1549C57.9804 13.0889 57.8087 12.9594 57.3907 13.0719L57.4716 15.7029C57.477 15.9034 57.4332 16.1022 57.3439 16.2819C56.0623 18.8142 54.5248 21.2087 52.7555 23.428C52.6464 23.5595 52.5106 23.6662 52.3571 23.7412C52.2036 23.8162 52.0358 23.8577 51.8651 23.8629L50.683 23.8976C50.4085 23.9087 50.1388 23.8236 49.9204 23.657V30.5548C50.3264 30.7237 51.0137 30.9216 51.3883 31.0302C51.8366 31.1594 52.1716 31.2573 52.4347 31.3581H63.1726C63.2255 31.3606 63.2775 31.3439 63.319 31.311C63.3605 31.2781 63.3886 31.2313 63.3982 31.1793L65.6269 21.8484L65.6275 21.8486ZM64.5176 52.0351C62.0488 52.0351 59.6354 52.7672 57.5827 54.1388C55.53 55.5104 53.9301 57.4599 52.9853 59.7407C52.0406 62.0216 51.7934 64.5314 52.275 66.9528C52.7566 69.3741 53.9455 71.5983 55.6912 73.344C57.4369 75.0897 59.661 76.2785 62.0824 76.7601C64.5037 77.2418 67.0135 76.9946 69.2944 76.0498C71.5753 75.105 73.5247 73.5051 74.8963 71.4524C76.2679 69.3997 77 66.9863 77 64.5176C76.9965 61.2081 75.6803 58.0351 73.3402 55.695C71 53.3548 67.8271 52.0386 64.5176 52.0351ZM69.0293 57.9004C69.5876 57.9008 70.1229 58.1227 70.5176 58.5175C70.9124 58.9122 71.1344 59.4476 71.1348 60.0058V69.0293C71.1342 69.5875 70.9122 70.1227 70.5175 70.5174C70.1227 70.9122 69.5875 71.1342 69.0293 71.1347H60.0059C59.4476 71.1341 58.9124 70.9121 58.5177 70.5174C58.123 70.1227 57.901 69.5875 57.9004 69.0293V60.0058C57.9009 59.4476 58.1228 58.9123 58.5176 58.5176C58.9123 58.1228 59.4476 57.9008 60.0059 57.9004H69.0293ZM68.7285 68.7285H60.3066V60.3066H68.7285V68.7285ZM65.2306 62.4121C65.2306 62.1741 65.3011 61.9415 65.4333 61.7437C65.5655 61.5458 65.7534 61.3916 65.9733 61.3005C66.1931 61.2095 66.435 61.1857 66.6684 61.2321C66.9018 61.2785 67.1162 61.3931 67.2844 61.5613C67.4527 61.7296 67.5673 61.944 67.6137 62.1774C67.6601 62.4107 67.6363 62.6527 67.5452 62.8725C67.4542 63.0923 67.3 63.2802 67.1021 63.4124C66.9043 63.5446 66.6717 63.6152 66.4337 63.6152C66.2757 63.6153 66.1192 63.5842 65.9732 63.5238C65.8271 63.4633 65.6944 63.3747 65.5827 63.263C65.4709 63.1513 65.3822 63.0186 65.3218 62.8726C65.2613 62.7266 65.2301 62.5701 65.2301 62.4121H65.2306Z" fill="url(#paint0_linear_1_1759)"/>
</g>
<defs>
<linearGradient id="paint0_linear_1_1759" x1="34.1232" y1="38.2919" x2="0.840399" y2="39.8226" gradientUnits="userSpaceOnUse">
<stop stop-color="#9130F4"/>
<stop offset="1" stop-color="#4646F9"/>
</linearGradient>
<clipPath id="clip0_1_1759">
<rect width="77" height="77" fill="white"/>
</clipPath>
</defs>
</svg>
